<?xml version="1.0" encoding="utf-8"?>
<!-- Generator: Adobe Illustrator 19.1.0, SVG Export Plug-In . SVG Version: 6.00 Build 0)  -->
<svg version="1.1" id="Layer_1" xmlns="http://www.w3.org/2000/svg" xmlns:xlink="http://www.w3.org/1999/xlink" x="0px" y="0px"
	 viewBox="-110 57.2 30.8 30.8" style="enable-background:new -110 57.2 30.8 30.8;" xml:space="preserve">
<path d="M-94.6,57.2c-8.5,0-15.4,6.9-15.4,15.4S-103.1,88-94.6,88s15.4-6.9,15.4-15.4S-86.1,57.2-94.6,57.2z M-90.5,72.6h-2.9
	c0,4.3,0,9.6,0,9.6h-3.9c0,0,0-5.3,0-9.6h-1.9v-3.9h1.9V67c0-1.6,0.8-4,4.1-4h3v3.3c0,0-1.8,0-2.2,0s-0.9,0.2-0.9,0.9v1.5h3.1
	L-90.5,72.6z"/>
</svg>
