<?xml version="1.0" encoding="utf-8"?>
<!-- Generator: Adobe Illustrator 19.1.0, SVG Export Plug-In . SVG Version: 6.00 Build 0)  -->
<svg version="1.1" id="Layer_1" xmlns="http://www.w3.org/2000/svg" xmlns:xlink="http://www.w3.org/1999/xlink" x="0px" y="0px"
	 viewBox="-110 57.2 30.8 30.8" style="enable-background:new -110 57.2 30.8 30.8;" xml:space="preserve">
<polygon points="-87.2,68.5 -87.2,65.6 -87.2,65.2 -87.6,65.2 -90.5,65.2 -90.5,68.5 "/>
<path d="M-94.6,76c1.9,0,3.4-1.5,3.4-3.4c0-0.7-0.2-1.4-0.6-2c-0.6-0.9-1.6-1.4-2.7-1.4s-2.1,0.6-2.7,1.4c-0.4,0.6-0.6,1.2-0.6,2
	C-98,74.5-96.5,76-94.6,76z"/>
<path d="M-89.3,72.6c0,2.9-2.4,5.3-5.3,5.3s-5.3-2.4-5.3-5.3c0-0.7,0.1-1.4,0.4-2h-2.8v7.9c0,1,0.8,1.8,1.8,1.8h11.8
	c1,0,1.8-0.8,1.8-1.8v-7.9h-2.9C-89.5,71.2-89.3,71.9-89.3,72.6z"/>
<path d="M-94.6,57.2c-8.5,0-15.4,6.9-15.4,15.4S-103.1,88-94.6,88s15.4-6.9,15.4-15.4S-86.1,57.2-94.6,57.2z M-85,70.6v7.9
	c0,2.1-1.7,3.7-3.7,3.7h-11.8c-2.1,0-3.7-1.7-3.7-3.7v-7.9v-3.9c0-2.1,1.7-3.7,3.7-3.7h11.8c2.1,0,3.7,1.7,3.7,3.7V70.6z"/>
</svg>
