<?xml version="1.0" encoding="utf-8"?>
<!-- Generator: Adobe Illustrator 19.1.0, SVG Export Plug-In . SVG Version: 6.00 Build 0)  -->
<svg version="1.1" id="Layer_2" xmlns="http://www.w3.org/2000/svg" xmlns:xlink="http://www.w3.org/1999/xlink" x="0px" y="0px"
	 viewBox="-344.4 234.4 349.8 217" style="enable-background:new -344.4 234.4 349.8 217;" xml:space="preserve">
<path d="M-47.6,406c-0.9,0.6-1.3,1.7-0.8,2.5c0.5,0.8,1.7,1.1,2.6,0.5c1-0.6,1.3-1.7,0.8-2.5C-45.5,405.6-46.7,405.4-47.6,406z"/>
<path d="M-43.2,390.3c-0.3,0.2-0.4,0.7-0.1,1c0.2,0.3,0.7,0.4,1,0.1c0.3-0.3,0.4-0.7,0.1-1C-42.4,390.1-42.9,390-43.2,390.3z"/>
<path d="M-66.1,413.4c-1,0.4-1.4,1.5-1.1,2.4c0.4,0.9,1.5,1.3,2.5,0.9c1-0.4,1.5-1.5,1.1-2.4C-64,413.4-65.1,413-66.1,413.4z"/>
<path d="M-79.8,420c-0.4,0.1-0.6,0.5-0.5,0.9c0.1,0.4,0.5,0.6,0.9,0.4c0.4-0.1,0.6-0.5,0.5-0.9C-79,420.1-79.4,419.9-79.8,420z"/>
<path d="M-143.9,409.9c-0.4,0-0.7,0.3-0.7,0.7c0,0.4,0.3,0.7,0.7,0.7c0.4,0,0.7-0.3,0.7-0.7C-143.2,410.2-143.5,409.9-143.9,409.9z"
	/>
<path d="M-111.2,417.8c-0.1-0.4-0.4-0.7-0.8-0.6c-0.4,0.1-0.7,0.4-0.6,0.8c0.1,0.4,0.4,0.7,0.8,0.6
	C-111.4,418.5-111.1,418.1-111.2,417.8z"/>
<path d="M-109.4,414.3c-0.1-0.4-0.5-0.7-0.9-0.7c-0.4,0.1-0.7,0.5-0.7,0.9c0.1,0.4,0.5,0.7,0.9,0.7
	C-109.6,415.2-109.3,414.8-109.4,414.3z"/>
<path d="M-105.5,413.8c1.1-0.2,1.8-1.3,1.6-2.5c-0.2-1.1-1.3-1.8-2.4-1.7c-1.1,0.2-1.8,1.3-1.6,2.4
	C-107.7,413.3-106.6,414-105.5,413.8z"/>
<path d="M-21.5,317.9c-1,0.6-1.4,1.9-0.9,2.9c0.6,1,1.8,1.5,2.9,1.1c1.1-0.5,1.5-1.8,0.9-2.9C-19.2,317.8-20.5,317.4-21.5,317.9z"/>
<path d="M-233.4,248.5c1.2,0.5,2.6,0.6,4,0.2c2.7-0.9,4.4-3.5,3.7-6c-0.7-2.5-3.6-3.8-6.5-2.9c-1.4,0.5-2.6,1.4-3.3,2.5
	c-0.7,1.1-0.9,2.4-0.4,3.6C-235.5,247.1-234.5,248-233.4,248.5z"/>
<path d="M-221.6,243.6c1.1-0.3,1.8-1.3,1.5-2.2c-0.2-0.9-1.3-1.5-2.4-1.2c-1.1,0.3-1.8,1.3-1.5,2.3
	C-223.8,243.4-222.7,243.9-221.6,243.6z"/>
<path d="M-212.6,250.5c0.4-0.1,0.7-0.5,0.6-0.9c-0.1-0.4-0.5-0.6-0.9-0.5c-0.4,0.1-0.7,0.5-0.6,0.9
	C-213.4,250.4-213,250.6-212.6,250.5z"/>
<path d="M-242.4,248.5c1.1-0.4,1.7-1.5,1.3-2.4c-0.3-0.9-1.5-1.3-2.6-0.9c-1.1,0.4-1.7,1.5-1.3,2.4
	C-244.6,248.6-243.4,248.9-242.4,248.5z"/>
<path d="M-172.2,246c1-0.1,1.9-0.9,1.8-1.9c0-1-0.9-1.8-2-1.7c-1.1,0.1-1.9,0.9-1.8,1.9C-174.1,245.3-173.2,246.1-172.2,246z"/>
<ellipse transform="matrix(-0.9964 8.431408e-02 -8.431408e-02 -0.9964 -337.9703 524.4052)" cx="-180.1" cy="255.1" rx="0.7" ry="0.7"/>
<path d="M-176.7,256.3c-0.9,0-1.5,0.8-1.5,1.7c0.1,0.9,0.8,1.5,1.7,1.4c0.9,0,1.5-0.8,1.5-1.6C-175.1,256.9-175.8,256.3-176.7,256.3
	z"/>
<path d="M-148.8,242.6L-148.8,242.6L-148.8,242.6L-148.8,242.6l0.3,0l0,0l0,0l0,0l0,0.1l0.1,0.2c0.1,0.2,0.2,0.4,0.4,0.6
	c0.3,0.3,0.8,0.6,1.3,0.6c1.1,0.1,2-0.7,2-1.7c0.1-1-0.7-1.8-1.8-1.9c-0.5,0-1,0.1-1.4,0.4c-0.2,0.2-0.3,0.3-0.4,0.5l-0.1,0.2l0,0.1
	l0,0l0,0l0,0l-0.3,0l0,0l0,0l0,0l0,0c0,0.1,0,0.2,0,0.4C-148.9,242.3-148.9,242.4-148.8,242.6L-148.8,242.6z"/>
<path d="M-141.2,252.2c1.2,0.1,2.3-0.7,2.4-1.9c0.1-1.2-0.8-2.2-2-2.3c-1.2-0.1-2.3,0.8-2.4,1.9
	C-143.3,251.1-142.4,252.1-141.2,252.2z"/>
<path d="M-172,251.8c-0.7,0-1.4,0.4-1.7,1c-0.2,0-0.3-0.1-0.5-0.1c-0.8,0-1.4,0.7-1.4,1.5c0.1,0.8,0.7,1.4,1.6,1.4
	c0.2,0,0.3-0.1,0.5-0.1c0.4,0.4,0.9,0.7,1.4,0.7c-0.2,0.4-0.3,0.8-0.3,1.3c0.1,1.5,1.4,2.7,2.9,2.6c1.5,0,2.7-1.3,2.7-2.8
	c0-1.5-1.3-2.7-2.9-2.7c0.1-0.2,0.1-0.4,0.1-0.6C-169.7,252.7-170.7,251.7-172,251.8z"/>
<path d="M-166.6,241.9c1.1,0,1.9-0.8,1.9-1.8c0-1-0.9-1.8-2-1.7c-1.1,0-1.9,0.8-1.9,1.8C-168.5,241.2-167.7,242-166.6,241.9z"/>
<path d="M-125.1,431.2c-1.1,0.2-1.8,1.2-1.6,2.2s1.3,1.6,2.4,1.3c1.1-0.2,1.8-1.2,1.6-2.2C-122.9,431.5-124,430.9-125.1,431.2z"/>
<path d="M-315.2,334.3c0.4-0.2,0.5-0.7,0.3-1.1c-0.2-0.4-0.7-0.5-1.1-0.2c-0.4,0.2-0.5,0.7-0.3,1.1
	C-316.1,334.5-315.6,334.6-315.2,334.3z"/>
<path d="M-319,334c0.3-0.2,0.4-0.6,0.2-1c-0.2-0.3-0.6-0.4-1-0.2c-0.3,0.2-0.4,0.6-0.2,1C-319.8,334.1-319.3,334.2-319,334z"/>
<path d="M-168.4,442.1c-2.9-0.2-5.4,1.6-5.7,4.2c-0.3,2.5,2,4.9,5,5.1c1.5,0.1,2.9-0.3,3.9-1.1c1-0.8,1.7-1.9,1.7-3.2
	c0-1.3-0.5-2.5-1.4-3.3C-165.7,442.8-167,442.2-168.4,442.1z"/>
<path d="M-177.5,444c-1.1-0.1-2.1,0.5-2.2,1.5c-0.1,1,0.7,1.9,1.8,2c1.1,0.1,2.1-0.6,2.2-1.6C-175.6,445-176.4,444.1-177.5,444z"/>
<path d="M-183.4,434.3c-0.4-0.1-0.8,0.2-0.9,0.6c-0.1,0.4,0.2,0.8,0.7,0.8c0.4,0.1,0.8-0.2,0.9-0.6
	C-182.6,434.7-182.9,434.3-183.4,434.3z"/>
<path d="M-156.4,447c-1.2,0-2.1,0.8-2.1,1.8c0,1,0.9,1.8,2.1,1.8c1.2,0,2.1-0.8,2.1-1.8C-154.3,447.8-155.2,447-156.4,447z"/>
<path d="M-222.6,423.6c-1-0.3-2.1,0.1-2.4,1.1c-0.3,0.9,0.2,2,1.2,2.3c1,0.3,2.1-0.1,2.4-1.1C-221.1,425-221.6,424-222.6,423.6z"/>
<path d="M-229.3,425.4c-1-0.4-2.1,0.1-2.4,1c-0.3,0.9,0.2,2,1.2,2.3c1,0.4,2.1-0.1,2.4-1C-227.8,426.8-228.3,425.8-229.3,425.4z"/>
<path d="M3.5,369.8c-1.2-1.3-2.8-2-4.5-1.8c-1.6,0.1-3,0.9-4,2c0.1-0.3,0.1-0.6,0.1-0.9c0-0.4-0.1-0.8-0.3-1.1
	c1.3-1.1,2.4-2.5,3-4.2c0.6-1.7,0.9-3.6,0.6-5.5c-0.5-2.9-1.9-5.4-3.9-7c0.5-0.7,0.8-1.6,0.6-2.5c2-1.2,3.5-3.1,4.3-5.4
	c0.8-2.3,1-5,0.2-7.6c-0.9-3.3-3-5.9-5.5-7.3c-2.5-1.5-5.6-1.8-8.4-0.8c-0.8,0.3-1.5,0.6-2.1,1c-0.1,0-0.3,0-0.4,0
	c-0.1-0.4-0.1-0.8-0.3-1.3c-0.7-2.2-2.4-3.7-4.1-4.4c-0.2-0.4-0.4-0.6-0.7-0.9c0-0.2-0.1-0.5-0.2-0.7c-0.4-1.1-1.3-1.9-2.4-2.3
	c0-0.3-0.1-0.7-0.3-1c-0.1-0.2-0.3-0.4-0.5-0.5c0.2-0.7,0.2-1.4,0-2.2c0.6,0,1.1-0.2,1.7-0.5c0.9-0.5,1.5-1.4,1.6-2.4
	c0.1-0.4,0.1-0.7,0-1.1c1.6-2.3,2.2-5.2,1.7-8.2c1.7-1.3,2.3-3.9,1.2-6.1c-1.3-2.5-4.2-3.5-6.5-2.2c-0.2,0.1-0.3,0.2-0.4,0.3
	c-1.8-1-3.7-1.4-5.6-1.3c0.3-0.5,0.4-1,0.2-1.6c1.5-0.1,2.9-0.6,3.9-1.7c1.2-1.2,1.7-2.9,1.4-4.6c-0.2-1.7-1.2-3.6-2.7-4.9
	c-1.6-1.3-3.5-2-5.2-1.9c-1.7,0.1-3.3,0.8-4.4,2.2c-1,1.3-1.3,2.8-1.1,4.3c-0.2-0.2-0.4-0.5-0.7-0.7c-0.3-0.2-0.7-0.4-1-0.5
	c0-1.7-0.4-3.4-1.2-5c-0.9-1.6-2.1-3-3.8-4.1c-2.5-1.6-5.3-2.2-7.9-1.6c-0.2-0.8-0.7-1.6-1.5-2.1c0.4-2.3-0.1-4.7-1.2-6.8
	c-1.2-2.1-3.1-4-5.6-5.1c-3.1-1.5-6.4-1.6-9.1-0.6c-2.8,0.9-5,3-6.1,5.8c-0.3,0.8-0.5,1.5-0.6,2.3c-0.5,0.4-0.8,0.9-1.1,1.5
	c-0.1,0.3-0.2,0.6-0.2,0.9c-2.1,0.2-3.9,1.2-5.1,2.8c-0.1-0.2-0.2-0.4-0.4-0.6c0.7-2-0.3-4.2-2.4-4.9c-1.8-0.7-3.8,0.1-4.7,1.7
	c-0.3-0.3-0.6-0.6-1-0.7c-1.2-0.4-2.4,0.3-2.8,1.4c-0.1,0.3-0.1,0.6-0.1,0.9l-1.2-0.6c0.3-0.3,0.5-0.6,0.7-1
	c0.6-0.1,1.1-0.6,1.3-1.2c0.1-0.4,0.1-0.8-0.1-1.2c0.1-0.2,0.2-0.4,0.2-0.6c1.5-4.7-0.6-9.6-4.9-12.2c0.1-2.2-1.4-4.3-3.9-4.9
	c-2.7-0.7-5.4,0.9-5.9,3.4c0,0.2,0,0.3-0.1,0.5c-1.9,0.7-3.5,1.8-4.7,3.4c-0.3-0.7-0.9-1.3-1.8-1.5c-1.3-0.2-2.5,0.6-2.7,1.8
	c-0.2,1.2,0.6,2.4,1.8,2.6c0.4,0.1,0.7,0,1,0c-0.2,0.5-0.4,1.1-0.5,1.6c-0.1,0.4-0.1,0.7-0.1,1.1l-4.2-0.5c-0.1,0-0.2-0.1-0.3-0.1
	c-0.2,0-0.4,0-0.5,0l-4.9-0.6c0.1-0.2,0.1-0.5,0.2-0.7c0.1-0.5,0.1-1,0.1-1.5c0.4-0.1,0.8-0.3,1.2-0.6c0,1,0.7,1.8,1.6,2
	c1.1,0.2,2.1-0.6,2.3-1.6c0.2-1.1-0.6-2.1-1.7-2.2c-0.3,0-0.5,0-0.7,0c0.1-0.3,0.2-0.6,0.3-0.9c0.4-2.3-1.3-4.4-3.7-4.8
	c-1.7-0.2-3.2,0.5-4.1,1.7c-0.6-0.2-1.3-0.4-1.9-0.5c-2.2-0.3-4.2,0.4-5.8,1.7c-2.1,0-3.8,1.5-3.9,3.5c-0.1,1.3,0.5,2.5,1.4,3.3
	c0.2,1.3,0.7,2.4,1.5,3.4l-2.4,0.9l0-0.1c0-0.4-0.3-0.8-0.7-0.8c-0.3,0-0.5,0.2-0.6,0.4c0.1-2.4-0.8-4.6-2.6-6.2l0.3-0.2
	c0.2,0.1,0.4,0.2,0.7,0.2c1.1,0.1,2.1-0.7,2.1-1.8c0.1-1.1-0.8-2-1.9-2.1c-0.2,0-0.5,0-0.7,0.1c-0.4-0.6-1.1-1-1.8-1.2
	c0.3-0.5,0.5-1,0.5-1.7c0.1-1-0.3-2-1-2.7c-0.2-0.2-0.4-0.3-0.6-0.5l-0.3-0.2l0,0l0,0c0,0-0.4,0-0.2,0l0,0l0,0l0,0l0,0l-0.1,0
	l-0.2-0.1c-0.4-0.2-0.9-0.3-1.5-0.3l0,0l0,0c0-0.5-0.2-1-0.6-1.4c0.6-0.8,1-1.7,1.1-2.8c0.1-2.6-1.9-4.7-4.5-4.8
	c-0.3,0-0.6,0-0.9,0.1c-0.4,0.1-0.7,0.1-1,0.3c-0.6,0.2-1.2,0.6-1.7,1c-1,0.8-1.6,2-1.6,3.3c0,1.3,0.6,2.4,1.5,3.3
	c0.5,0.4,1,0.8,1.6,1c0.3,0.1,0.6,0.2,0.9,0.3c0.3,0.1,0.6,0.1,0.9,0.1c0.3,0,0.5,0,0.8-0.1c0.1,0.4,0.3,0.8,0.6,1
	c-0.2,0.2-0.4,0.5-0.5,0.8c-0.5-0.3-0.9-0.5-1.5-0.7c-0.5-0.2-1.2-0.2-1.8-0.3c-1.9,0-3.6,0.7-4.8,1.8l-0.3,0
	c-0.9,0-1.6,0.3-2.2,0.7c-0.6-0.7-1.4-1.1-2.4-1.1c-1.7,0-3,1.4-2.9,2.9c0.1,1.6,1.4,2.8,3.1,2.8c0.3,0,0.6-0.1,0.9-0.2l0.2,0.3
	c-0.2,0.5-0.3,1-0.2,1.5c0,1.8,1,3.4,2.5,4.2c-0.6,0.3-1.1,1-1.1,1.8c0,1.1,0.9,1.9,1.9,1.9c1,0,1.9-0.9,1.9-1.9
	c0-0.4-0.1-0.7-0.3-1l0.1,0c0.9,0,1.7-0.2,2.5-0.6c-0.2,0.5-0.3,1-0.3,1.5c-2.9,1-5,3.7-4.9,7l0,0.1c-0.5-0.2-1-0.3-1.6-0.3
	c-0.5,0-1.1,0.1-1.5,0.4c-0.4-0.5-1-0.9-1.7-0.8c-0.2,0-0.5,0.1-0.7,0.2c0.1-0.2,0.1-0.5,0.1-0.7c0-1.2-1-2.2-2.2-2.1
	c-1.2,0.1-2.1,1.1-2,2.3c0,0.7,0.4,1.3,1,1.7c-0.7,0.2-1.2,0.8-1.3,1.5c-1.8-3-5.1-4.8-8.7-4.5c-0.4,0-0.8,0.1-1.1,0.2
	c1.7-2.1,2.6-4.9,2.3-7.8c0-0.2,0-0.3-0.1-0.5l0-0.1l0-0.1c-0.1-1-0.4-1.9-0.8-2.8c2.1-1.9,3.5-4.8,3.4-7.8c0.8-0.2,1.4-0.7,1.8-1.3
	c0.2,0.1,0.5,0.1,0.7,0.1c1.1-0.1,2-1,2-2.1c0-0.5-0.2-0.9-0.6-1.2c1.7-0.8,2.8-2.5,2.7-4.4c-0.1-2.6-2.5-4.5-5.4-4.4
	c-2.9,0.2-5,2.5-4.8,5c0.1,0.6,0.2,1.2,0.5,1.7c-1.1-1-2.4-1.8-3.9-2.3c-1.5-0.5-3.2-0.6-4.9-0.4c-2.9,0.3-5.4,1.8-7.1,3.7
	c-0.7-0.5-1.6-0.9-2.5-0.7c-1.7,0.3-2.9,1.8-2.6,3.4c0.2,1.4,1.5,2.2,2.9,2.3c-0.1,0.4-0.1,0.8-0.1,1.1c-0.6-0.4-1.4-0.6-2.2-0.4
	c0-0.2,0.1-0.4,0-0.6c-0.2-1.2-1.5-2-2.8-1.8c-0.8,0.1-1.4,0.6-1.7,1.2c-0.2,0-0.4,0-0.5,0c-0.8,0.2-1.4,1-1.2,1.7
	c0.2,0.8,1,1.3,1.8,1.1c0.2,0,0.3-0.1,0.5-0.2c0.4,0.3,1,0.5,1.6,0.5c-0.1,0.3-0.1,0.5-0.1,0.8c-1-0.7-2.2-0.9-3.4-0.6
	c-1.9,0.4-3.2,1.8-3.5,3.5c-0.5-0.3-1-0.5-1.6-0.6c0-0.4,0-0.8-0.1-1.2c-0.5-2.1-2.7-3.3-5-2.8c-2.3,0.6-3.7,2.8-3.1,4.9
	c0.1,0.3,0.2,0.6,0.4,0.8c-1.9,1.7-2.8,4-2.5,6.5c-0.2,0.1-0.5,0.3-0.7,0.5c0.1-0.6,0.1-1.2-0.1-1.7c-0.6-2.1-2.9-3.1-5.1-2.4
	c-2,0.6-3.1,2.5-2.8,4.3c-0.4-0.1-0.9-0.1-1.3,0.1c-0.9,0.3-1.5,1.1-1.5,1.9c-0.7,0.8-1.1,1.9-1.1,2.9c-0.2-0.1-0.3-0.2-0.5-0.3
	c0.8-1.6,1-3.4,0.4-5.1c-1.2-3.2-5.1-4.7-8.7-3.2c-2.4,1.1-3.9,3.1-4.2,5.3c-0.8,0.6-1.1,1.5-0.7,2.3c0.2,0.5,0.7,0.8,1.2,0.9l0,0.1
	c1.1,2.3,3.5,3.5,6,3.5c0,0.4,0.1,0.9,0.3,1.3c0.7,1.5,2.2,2.3,3.8,2.2c-0.9,1-1.5,2.2-1.7,3.4l-0.2-0.1c-0.7-0.2-1.5,0.2-1.7,0.9
	c-0.3,0.7,0.1,1.5,0.8,1.8c0.2,0.1,0.3,0.1,0.5,0.1c0.2,0.5,0.5,0.9,0.9,1.2c-0.2,0.2-0.4,0.4-0.5,0.7c-0.4-1-1.2-1.8-2.2-2.2
	c-0.5-0.2-1-0.2-1.5-0.2c0.4-0.6,0.6-1.4,0.5-2.1c0.4,0.4,0.9,0.7,1.5,0.8l-1.5-1.2c-0.1-0.3-0.1-0.6-0.3-0.8
	c-0.2-0.4-0.5-0.8-0.9-1.1l-0.9-4l-0.2-0.3c-0.8-0.8-2.1-0.9-2.9-0.1c-0.8,0.7-0.7,2.1,0.1,2.9c0.7,0.7,1.7,0.8,2.5,0.4
	c0,0.2,0.1,0.4,0.1,0.5c-0.6-0.2-1.1-0.2-1.7,0c-0.3-0.3-0.7-0.6-1.1-0.7c-0.5-0.2-1-0.3-1.6-0.3c-0.4-0.7-1-1.3-1.6-1.8
	c1.2-1.5,1.6-3.4,0.7-5.1c-0.6-1.1-1.6-1.9-2.9-2.2c-1.2-0.3-2.6-0.1-3.9,0.6c-2.6,1.4-3.6,4.5-2.3,6.7c-0.8,0.5-1.5,1.1-2.1,1.8
	c-0.9-0.1-1.8,0.2-2.5,0.7c0.1-0.5,0.1-1-0.2-1.4c-0.5-0.8-1.7-1-2.7-0.3c-0.7,0.5-1.1,1.2-1,1.9c-0.3,0.2-0.5,0.5-0.7,0.8
	c-0.1,0.3-0.2,0.6-0.2,0.9c-1.7-0.5-3.7,0.2-4.6,1.9c-0.2,0.4-0.4,0.9-0.4,1.4c-0.1-0.1-0.3-0.2-0.4-0.3c-1.8-1-3.8-1.1-5.6-0.6
	c-1.8,0.5-3.5,1.7-4.5,3.5c-0.3,0.5-0.5,0.9-0.6,1.4c-0.4,0-0.9,0-1.3,0.1c0.4-0.9,0.1-1.9-0.8-2.4c-0.9-0.6-2.2-0.3-2.7,0.7
	c-0.6,0.9-0.2,2.1,0.7,2.7c0.2,0.1,0.5,0.2,0.7,0.2c-0.2,0.2-0.4,0.5-0.6,0.8c-1,1.6-0.6,3.7,0.7,5l-0.3,0.3c-0.8,0.9-1,2-0.6,3
	c-0.6-0.1-1.1-0.1-1.7,0.1c-1.3-0.7-2.9-0.9-4.4-0.5c-2.4-1.2-5-1.4-7.6-0.8c-1.3,0.3-2.5,0.9-3.7,1.6l-0.1,0l0,0l0,0
	c0.1-0.2-0.2,0.3-0.2,0.3l0,0l0,0l-0.1,0.1l-0.2,0.1l-0.4,0.3c-0.3,0.2-0.5,0.4-0.8,0.6c-0.5,0.4-1,0.9-1.4,1.5
	c-1.9,2.4-2.9,6.1-2.6,9.3c0.1,1.6,0.7,3.1,1.5,4.4c0.8,1.3,1.9,2.5,3.2,3.4c0.5,0.4,1,0.6,1.6,0.9l-0.1,0.2
	c-0.3,0.6-0.4,1.2-0.4,1.8c-1.1-0.1-2.2,0.4-2.8,1.4c-0.9,1.5-0.6,3.4,0.8,4.3c1.4,0.9,3.3,0.5,4.2-1c0.2-0.3,0.3-0.7,0.4-1.1
	c0.3,0.4,0.7,0.7,1.1,1c0.6,0.4,1.1,0.6,1.7,0.8c-0.1,0.3-0.2,0.6-0.2,0.9c-1.3-0.1-2.6,0.4-3.6,1.3c-1.3,0-2.7,0.7-3.4,1.9
	c-1.5-0.6-3.3,0-4.2,1.5c-1,1.7-0.5,3.9,1.2,4.9c0.3,0.2,0.6,0.3,0.8,0.3c0.3,0.5,0.8,1,1.4,1.2c1.5,0.6,3.1-0.1,3.8-1.6
	c0.1-0.3,0.2-0.6,0.2-0.9l0.3,0c0.4,0.3,0.8,0.6,1.3,0.9c1.7,0.7,3.5,0.5,4.9-0.5c0,0.8,0.5,1.6,1.3,1.9c0.1,0.1,0.3,0.1,0.4,0.1
	l0.1,2.2c-0.8-0.1-1.7,0.3-2,1.1c-0.1,0.2-0.1,0.5-0.1,0.7c-0.3-0.2-0.5-0.4-0.8-0.5c-0.4-0.2-0.9-0.3-1.3-0.3
	c0.5-1.4-0.1-2.9-1.5-3.5c-1.4-0.6-3.1,0-3.6,1.5c-0.2-0.1-0.3-0.3-0.5-0.3c-1.1-0.5-2.4,0.1-2.9,1.2c-0.3,0.7-0.2,1.4,0.2,1.9
	c-0.1,0.1-0.2,0.3-0.3,0.4c-0.3,0.7,0.1,1.6,0.8,1.9c0.7,0.3,1.6-0.1,1.9-0.8c0.1-0.2,0.1-0.3,0.1-0.5c0.5-0.2,1-0.5,1.3-1
	c0.3,0.3,0.6,0.6,1,0.8l0.1,0c-0.2,0.3-0.4,0.6-0.5,0.9c-0.2,0.5-0.3,1-0.3,1.5l0,0c-0.8-0.3-1.7,0.1-2,0.9c-0.3,0.8,0.1,1.7,0.9,2
	c0.7,0.3,1.4,0,1.8-0.6c0.1,0.1,0.2,0.3,0.3,0.4c-0.4,0.5-0.7,1-0.9,1.6c-0.2,0.5-0.3,1.1-0.4,1.6c-0.6-0.5-1.5-0.6-2.3-0.3
	c-0.3,0-0.5,0.2-0.6,0.4c-0.5,0.5-0.7,1.1-0.7,1.7c-0.6-0.4-1.3-0.5-2-0.2c0.5-1.2,0.7-2.5,0.7-3.7l0.2,0.1c0.4,0.1,0.8-0.1,0.9-0.4
	c0.1-0.4-0.1-0.8-0.4-0.9c-0.3-0.1-0.6,0-0.8,0.2l0-0.3c-0.2-1.7-0.7-3.4-1.8-4.9c-1.4-2.2-3.7-3.5-6.1-4.1
	c-2.4-0.6-5.1-0.4-7.4,0.9c-0.5-0.6-1.2-1-1.9-1.1c0-0.2-0.1-0.5-0.2-0.7c-0.6-1-1.8-1.4-2.7-0.9c-0.3,0.1-0.5,0.4-0.6,0.6
	c-0.1-0.2-0.2-0.4-0.3-0.7c-1.7-3.3-5.5-4.9-8.6-3.5c-1.6,0.7-2.6,2.1-3,3.8c-0.4,1.7-0.2,3.7,0.8,5.6c1,1.8,2.5,3.1,4.1,3.7
	c1.7,0.6,3.4,0.4,4.9-0.5c1.4-0.8,2.2-2.1,2.6-3.6c0.1,0.3,0.2,0.6,0.4,0.9c0.2,0.3,0.5,0.6,0.8,0.9c-0.6,1.5-0.9,3.3-0.7,5.1
	c0.2,1.8,0.9,3.6,2,5.2c1.8,2.4,4.1,3.9,6.7,4.4c-0.1,0.8,0,1.7,0.6,2.5c-1.2,2-1.7,4.4-1.3,6.7c0.3,2.4,1.4,4.9,3.3,6.8
	c2.3,2.5,5.4,3.8,8.3,3.9c2.9,0.2,5.8-1,7.8-3.1c0.6-0.6,1-1.2,1.4-1.9c0.6-0.2,1.1-0.5,1.5-1c0.2-0.2,0.4-0.5,0.5-0.7
	c2,0.6,4.1,0.3,5.8-0.8c0,0.2,0.1,0.5,0.1,0.7c-1.4,1.6-1.2,4,0.5,5.5c1.4,1.3,3.6,1.3,5,0.1c0.1,0.1,0.2,0.3,0.3,0.4
	c0.1,0.2,0.3,0.4,0.5,0.6c1,0.8,2.4,0.6,3.1-0.3c0.2-0.3,0.3-0.5,0.4-0.8c0.7,0.4,1.4,0.5,2.2,0.5c-0.8,0.3-1.6,0.7-2.3,1.2
	c-0.6-0.1-1.3,0.1-1.7,0.6c-0.3,0.3-0.4,0.7-0.4,1.1c-0.1,0.2-0.3,0.3-0.5,0.5c-3.1,3.8-2.9,9.2,0.1,13.1c-0.9,2-0.2,4.5,1.8,5.9
	c2.3,1.6,5.3,1.1,6.8-1c0.1-0.1,0.2-0.3,0.2-0.5c2,0,3.9-0.4,5.6-1.4c0,0.8,0.3,1.6,1.1,2.1c1.1,0.7,2.5,0.4,3.1-0.7
	c0.6-1,0.3-2.4-0.8-3.1c-0.3-0.2-0.6-0.3-1-0.3c0.4-0.4,0.7-0.9,1-1.4c0.5-0.8,0.8-1.6,1.1-2.4l2.6,2.5c0,0.2,0.1,0.3,0.2,0.4
	c-0.6,0.5-1.2,1.1-1.6,1.8c-1.6,2.8-0.7,6.4,2.1,8c-0.3,0.3-0.6,0.6-0.9,1c-1.3,2.3-0.4,5.2,2,6.4c1.4,0.7,2.9,0.7,4.2,0.1
	c0.2,0.3,0.5,0.5,0.9,0.7c1,0.5,2.2,0.4,3.1-0.2c0.1,0.6,0.2,1.1,0.5,1.6c-0.4,1.5-0.1,3.1,0.6,4.4c-0.5,2.6-0.1,5.2,1.1,7.6
	c0.6,1.2,1.5,2.2,2.5,3.2l0,0l0,0l0,0c-0.3-0.1,0.3,0.1,0.3,0.1l0,0l0,0l0.1,0.1l0.2,0.2l0.4,0.3c0.3,0.2,0.5,0.4,0.8,0.6
	c0.6,0.4,1.2,0.7,1.8,1c2.8,1.3,6.7,1.2,9.6,0.1c1.5-0.6,2.8-1.4,3.9-2.5c1.1-1.1,2-2.4,2.5-4c0.2-0.6,0.4-1.2,0.5-1.7l0.2,0.1
	c0.6,0.1,1.3,0.1,1.8,0c0.2,1,0.9,2,2,2.4c1.7,0.5,3.5-0.3,4-1.9c0.5-1.6-0.4-3.3-2-3.8c-0.4-0.1-0.8-0.1-1.1-0.1
	c0.3-0.4,0.5-0.9,0.7-1.4c0.2-0.6,0.3-1.3,0.3-1.9c0.3,0,0.6,0,0.9,0c0.2,1.1,0.8,2.1,1.7,2.8c-0.3,1.1,0.3,2.3,1.5,2.7
	c0.3,0.1,0.5,0.1,0.8,0.1c0.3,0.2,0.6,0.3,1,0.4c-0.2,1.6,0.9,3.2,2.6,3.7c1.9,0.6,3.9-0.5,4.4-2.4c0.1-0.3,0.1-0.6,0.1-0.9
	c0.4-0.4,0.8-1,0.8-1.6c0-0.2,0-0.4,0-0.6c0.5,0.8,1.1,1.4,2,1.8c1.2,0.5,2.4,0.5,3.5,0.1c1.3-0.2,2.5-1.1,2.8-2.5
	c0.2-0.8,0.1-1.6-0.2-2.2c-0.1-0.8-0.5-1.5-1-2.1c0.3-0.2,0.4-0.4,0.5-0.8c0.1-0.2,0.1-0.4,0-0.6c0.4,0.6,1.1,1.1,1.8,1.5
	c-0.3,0.2-0.5,0.4-0.6,0.8c-0.2,0.7,0.2,1.3,0.9,1.5l0.3,0c-0.1,0.2-0.2,0.4-0.3,0.6l-0.1,0.3c-0.1,0.1-0.1,0.2-0.1,0.3l0,0
	c-0.5,1.8-0.4,3.7,0.4,5.3c0.9,1.9,2.5,3.4,4.6,4.1c1.6,0.6,3.3,0.6,4.9,0.2c0.7,1.7,2.1,3.1,4.1,3.8c3.4,1,7-0.9,7.9-4.1
	c0.9-3.3-1-6.7-4.3-7.6c-0.7-0.2-1.4-0.3-2.1-0.2c-0.2-2.1-1.1-4-2.7-5.4c-0.1-0.6-0.2-1.3-0.5-1.8l7,1.4c-0.9,3.1,0.9,6.3,4,7.2
	c-0.2,0.4-0.5,0.7-0.6,1.2c-0.7,2.5,0.8,5.1,3.4,5.8c1.5,0.4,3,0,4.1-0.9c0.3,0.2,0.6,0.4,1,0.4c1.1,0.3,2.2-0.1,3-0.9
	c0.2,0.5,0.5,1,0.9,1.4c0,1.5,0.6,3,1.6,4.1c0.1,2.6,1.1,5.1,2.9,7.1c0.9,1,2,1.8,3.2,2.5l0.1,0l0,0l0,0c-0.3,0,0.4,0,0.3,0l0,0l0,0
	l0.1,0.1l0.2,0.1l0.4,0.2c0.3,0.1,0.6,0.3,0.9,0.4c0.6,0.2,1.3,0.4,2,0.5c3,0.6,6.8-0.4,9.4-2.2c1.3-0.9,2.4-2.1,3.2-3.4l0.1-0.1
	c0.3,0.9,0.9,1.7,1.6,2.2c1,0.8,2.4,1.1,3.9,0.9c2.9-0.3,5-2.9,4.5-5.4c2.8-0.4,5-2.3,5.9-4.6l0.2,0c2,0.1,3.7-1.4,3.7-3.3
	c0-0.3,0-0.6-0.1-0.9c0.3-0.5,0.5-1.1,0.4-1.8c-0.2-1.6-1.6-2.7-3.2-2.6c-0.3,0-0.6,0.1-0.9,0.3l-0.2-0.3c0.1-0.5,0.2-1,0.1-1.6
	c-0.2-1.8-1.3-3.3-2.8-4.1c0.7-0.4,1.1-1.2,1.1-2.1c-0.1-1.2-1.1-2.1-2.3-2c-1.2,0.1-2.1,1.1-2,2.4c0,0.5,0.2,0.9,0.5,1.3
	c-1,0.1-1.8,0.4-2.5,1c-0.7-0.9-1.8-1.4-3-1.3c-1.7,0.1-3.1,1.3-3.6,2.9c-0.5-0.2-0.9-0.3-1.4-0.3c-2.4-0.2-4.6,0.8-6,2.7
	c-0.3-0.1-0.6-0.3-1-0.4c-0.3-0.6-0.7-1.2-1.2-1.6c-0.2-1.2-0.8-2.3-1.5-3.2c0.6,0,1.2-0.3,1.6-0.8c0.1,0.1,0.3,0.1,0.5,0.1
	c0.8,0,1.4-0.6,1.4-1.4c0-0.8-0.6-1.4-1.3-1.4c-0.2,0-0.3,0-0.5,0.1c-0.3-0.4-0.8-0.7-1.3-0.8c0.1-0.2,0.2-0.5,0.3-0.8
	c0.8,0.8,1.7,1.3,2.8,1.3c1.7,0,3.1-1.1,3.6-2.7c0.4,0.4,0.8,0.7,1.2,1c-0.1,0.4-0.2,0.8-0.2,1.2c0,2.1,1.7,3.8,3.8,3.8
	c2.1,0,3.7-1.9,3.6-4c0-0.3-0.1-0.6-0.1-0.9c1.9-1.2,3.2-3.3,3.4-5.7c0.2-0.1,0.5-0.2,0.7-0.3c-0.2,0.5-0.3,1.1-0.3,1.7
	c0.1,2.1,1.9,3.8,3.9,3.6c1.6-0.1,2.8-1.3,3.2-2.9l3.7,1.3c0,0.4,0,0.8,0,1.2c0.1,0.5,0.2,1,0.3,1.5c-0.3,0.2-0.6,0.5-0.9,0.8
	c-0.2-0.9-1-1.6-2-1.5c-1,0.1-1.8,1-1.7,2.1c0.1,1.1,1,1.9,2,1.8c0.2,0,0.5-0.1,0.7-0.2c0,0.3-0.1,0.6,0,1c0,0.5,0.2,0.9,0.4,1.3
	c-1.4,0.2-2.5,1.5-2.4,3c0.1,1.5,1.5,2.7,3,2.5c0,0.2-0.1,0.4-0.1,0.6c0.1,1.2,1.2,2.1,2.5,1.9c0.7-0.1,1.3-0.5,1.6-1.1
	c0.2,0,0.3,0.1,0.5,0c0.8-0.1,1.4-0.8,1.3-1.6c-0.1-0.8-0.8-1.3-1.6-1.2c-0.2,0-0.3,0.1-0.5,0.2c-0.4-0.4-0.9-0.6-1.5-0.6
	c0.1-0.4,0.2-0.8,0.2-1.3l0-0.1c0.4,0.1,0.7,0.1,1.1,0c0.5-0.1,1-0.2,1.4-0.5l0,0c0.1,0.8,0.9,1.4,1.7,1.3c0.8-0.1,1.4-0.9,1.3-1.7
	c-0.1-0.7-0.7-1.3-1.4-1.3c0.1-0.2,0.2-0.3,0.2-0.5c0.6,0.1,1.2,0.1,1.9,0c2-0.3,3.7-1.5,4.8-3.1c0.5-0.1,0.9-0.4,1.3-0.7l2.8-1.5
	c0.4,0.2,0.8,0.3,1.2,0.2c0.2,0,0.4-0.1,0.6-0.3c0.5,0.5,1.2,0.7,2,0.7c-0.1,0.6-0.2,1.1,0,1.7c0.4,2,2.5,3.4,4.5,2.8
	c0.5-0.1,1-0.3,1.3-0.6c-0.2,0.5-0.3,1-0.2,1.6c0.2,0.7,0.7,1.2,1.3,1.5c-0.7,0.3-1,1-1,1.7c-1.2-1.3-2.7-2.2-4.4-2.8
	c-1.7-0.6-3.4-0.7-5.3-0.3c-2.6,0.5-4.8,2-6.3,4c-1.5,2-2.3,4.5-2,7.2c-0.7,0.3-1.3,0.8-1.7,1.4c-0.2,0-0.5-0.1-0.7,0
	c-1.1,0.2-1.9,1.1-1.8,2.2c0.1,1.1,1.2,1.9,2.3,1.7c0.3,0,0.5-0.1,0.7-0.2c0.7,0.6,1.6,1,2.6,0.8c0.4-0.1,0.7-0.2,1.1-0.4
	c2.3,2.5,5.9,3.6,9.7,2.9c2.8-0.6,5.2-2.1,6.7-4.2c0.7,0.5,1.6,0.7,2.5,0.5c1.7-0.4,2.7-2,2.3-3.5c-0.4-1.3-1.7-2.1-3-2.1
	c0-0.4,0-0.8,0-1.1c0.6,0.3,1.4,0.5,2.2,0.3c0,0.2,0,0.4,0,0.6c0.3,1.2,1.6,1.9,2.9,1.5c0.7-0.2,1.3-0.7,1.5-1.3c0.2,0,0.4,0,0.5,0
	c0.8-0.2,1.3-1,1.1-1.8c-0.2-0.8-1.1-1.2-1.9-1c-0.2,0-0.3,0.1-0.5,0.2c-0.5-0.3-1-0.5-1.6-0.4c0.1-0.3,0.1-0.6,0.1-0.8
	c1,0.6,2.2,0.7,3.4,0.4c1.8-0.5,3-2.1,3.1-3.8c0.5,0.2,1,0.4,1.6,0.5c0,0.4,0,0.8,0.2,1.2c0.7,2,3,3.1,5.2,2.3
	c2.2-0.8,3.3-3,2.6-5.1c-0.1-0.3-0.3-0.6-0.4-0.8c1.5-1.6,2.2-3.7,1.9-5.8c0.2,0,0.4,0,0.6,0c0,0.1,0.1,0.2,0.1,0.4
	c0.4,1,1.2,1.7,2.2,2.1c0.9,0.3,2.1,0.3,3.1-0.1c0.8-0.4,1.4-0.9,1.8-1.6c1.5,0,3-0.4,4.5-1.1c1.3-0.6,2.3-1.5,3.2-2.5
	c0.8-1,1.5-2.1,1.9-3.3c0.8,0.3,1.7,0.2,2.5-0.3c1.4-0.9,1.9-2.7,1.1-4c-0.7-1.2-2.2-1.6-3.4-1.1c-0.1-0.4-0.2-0.7-0.4-1.1
	c0.7,0.2,1.4,0.1,2.1-0.3c0.1,0.2,0.1,0.4,0.2,0.6c0.7,1,2,1.3,3.1,0.6c0.6-0.4,0.9-1.1,1-1.7c0.2,0,0.3-0.1,0.5-0.2
	c0.7-0.4,0.8-1.4,0.4-2c-0.5-0.6-1.3-0.8-2-0.3c-0.1,0.1-0.3,0.2-0.4,0.4c-0.5-0.2-1.1-0.1-1.6,0.1c0-0.3-0.1-0.5-0.2-0.8
	c1.1,0.2,2.3,0.1,3.2-0.6c0.8-0.6,1.3-1.4,1.5-2.3c0.6-0.4,1.3-0.8,2-1.2l0.1,0.1c1.3,1.7,3.8,1.9,5.5,0.5c0.6-0.6,1-1.3,1.2-2
	c1,0.3,2,0.5,3,0.4c0.3,0,0.6-0.1,0.9-0.1c0.1,0,0.3-0.1,0.4-0.1l0.2-0.1l0,0l0,0l-0.1-0.1l0,0l0,0l0,0l0.1,0l0.1,0
	c0.6-0.2,1.1-0.4,1.6-0.7c0.2,0.1,0.4,0.3,0.6,0.4c-0.5,0.1-1.1,0.4-1.6,0.7c-1.7,1.3-2.1,3.7-0.9,5.3c1.1,1.4,3,1.8,4.7,1
	c0,0.4,0.1,0.8,0.3,1.1c0.7,0.9,2,1.1,3,0.4c0.3-0.2,0.5-0.4,0.6-0.7c1.3,1.2,3.4,1.5,4.9,0.4c0.4-0.3,0.8-0.6,1-1
	c0.1,0.1,0.1,0.3,0.2,0.4c1.1,1.7,2.9,2.7,4.7,3.1c1.9,0.4,3.9,0.1,5.6-1c0.4-0.3,0.8-0.6,1.2-1c0.4,0.2,0.8,0.4,1.2,0.5
	c-0.7,0.6-0.9,1.7-0.4,2.5c0.6,0.9,1.8,1.2,2.7,0.7c0.9-0.6,1.2-1.8,0.6-2.7c-0.1-0.2-0.3-0.4-0.5-0.5c0.3-0.1,0.6-0.2,0.9-0.4
	c2-1.2,2.5-3.9,1.2-5.9c-0.9-1.4-2.5-2.1-4-2c-0.2-0.6-0.5-1.2-0.9-1.8c-1.2-1.8-3.1-2.9-5.1-3.3c-1.3-1.6-3.6-1.9-5.2-0.7
	c-1,0.8-1.6,2-1.6,3.2c-0.9,1-1.4,2.3-1.7,3.6c-1.3-0.9-3.1-1-4.5,0c-0.9,0.7-1.5,1.7-1.6,2.7c-0.3-0.1-0.6-0.1-0.9-0.1
	c0.4-1.1,0.2-2.4-0.5-3.4c-0.1-0.1-0.2-0.3-0.3-0.4c1.7,0.1,3.4-0.3,4.8-1.3c-0.2,0.2-0.2,0.5,0,0.8c0.2,0.3,0.7,0.4,1,0.1
	c0.3-0.2,0.4-0.7,0.2-1c-0.2-0.2-0.4-0.3-0.7-0.2c1.9-1.5,3-3.7,3-6c0.1,0,0.2,0,0.3,0c0.1,0.2,0.2,0.4,0.3,0.6
	c0.7,0.9,1.9,1.1,2.8,0.4c0.9-0.6,1-1.9,0.3-2.8c-0.1-0.2-0.3-0.3-0.5-0.5c0.2-0.7,0.1-1.5-0.3-2.2c0.6-0.1,1.1-0.3,1.6-0.7
	c0.8-0.6,1.3-1.6,1.4-2.6c0-0.2,0-0.5,0-0.8c0-0.1,0-0.3-0.1-0.4l0,0c0,0-0.3-0.3-0.1-0.2l0,0l0,0l0,0l0,0l0-0.1l0-0.2
	c-0.1-0.5-0.4-0.9-0.7-1.3l0,0l0,0l0.2-0.2c0.6,0.1,1.3,0.2,2,0.2c0.2,0.8,0.6,1.4,1.2,1.9c-0.1,0.2-0.1,0.5-0.1,0.7
	c0,1.1,0.9,2.1,2,2.1c0.3,0,0.6-0.1,0.8-0.2c0,0.2,0,0.5,0,0.7c0,3.7,2.6,6.9,6,7.1c1.7,0.1,3.3-0.6,4.5-2c1.1-1.3,1.9-3.2,1.9-5.3
	C5.4,372.9,4.7,371.1,3.5,369.8z M-313.3,351.2c0.1-0.2,0.2-0.4,0.3-0.5c0,0.2,0.1,0.5,0.2,0.7C-313,351.3-313.1,351.2-313.3,351.2z
	 M-310.3,352.6c-0.3-0.1-0.6-0.1-0.8-0.1l0,0c0.3,0,0.6-0.1,0.9-0.2C-310.3,352.3-310.3,352.5-310.3,352.6z M-309.2,350.8l0-0.3
	l0.2,0.2L-309.2,350.8z M-306,353.1c0.1-0.7,0-1.3-0.5-1.9c-0.2-0.2-0.4-0.3-0.6-0.4c0.2-0.1,0.4-0.2,0.6-0.4
	c0.1-0.1,0.2-0.2,0.3-0.3c0.1,0.3,0.3,0.7,0.4,1c-0.2,0.8-0.1,1.6,0.3,2.4C-305.6,353.3-305.8,353.2-306,353.1z M-303.7,355.5
	L-303.7,355.5c-0.1-0.1-0.2-0.3-0.3-0.4c0.2,0.1,0.3,0.2,0.5,0.3L-303.7,355.5z M-298,340.9c0-0.4-0.1-0.8-0.3-1.2
	c0.3,0.1,0.6,0.1,0.9,0l0.1,1.3C-297.5,341-297.8,341-298,340.9z M-136,420.8c0.3-0.1,0.6-0.1,0.9-0.3c0.3,0.7,0.8,1.2,1.4,1.7
	c-0.4,0.3-0.9,0.7-1.3,1c-0.3,0.2-0.7,0.3-1,0.5c0.1-0.3,0.2-0.6,0.2-1C-135.8,422.1-135.9,421.4-136,420.8z M-140.2,428.8l0.2,0
	l0.3,0c0.1,0.3,0.2,0.5,0.4,0.7c-0.3,0.2-0.6,0.4-0.9,0.7C-140.2,429.7-140.2,429.3-140.2,428.8z M-61.3,280.3
	c-0.1,0.2-0.1,0.4-0.1,0.6l-0.1,0c-0.1-0.2-0.2-0.3-0.4-0.5C-61.7,280.3-61.5,280.3-61.3,280.3z M-63.7,279.9L-63.7,279.9
	L-63.7,279.9L-63.7,279.9z M-132,300.1h10.7v37.9H-132V300.1z M-143.5,263.4c0,0.2,0.1,0.3,0.2,0.4l-0.3,0.1
	C-143.6,263.7-143.6,263.6-143.5,263.4z M-151.4,253.5c0.1,0,0.2,0,0.3,0c-0.1,0.3-0.2,0.5-0.2,0.8c0,0.1,0,0.3,0,0.4
	c-0.1,0-0.3,0-0.4,0C-151.4,254.4-151.4,254-151.4,253.5z M-170.1,271.6c0.2,0.3,0.6,0.6,1,0.7c0,0.1,0,0.3,0,0.4l0,0.2
	c-0.4-0.3-0.8-0.4-1.3-0.5C-170.3,272.2-170.2,271.9-170.1,271.6z M-170.5,269.6l0,0.3l-0.2-0.2L-170.5,269.6z M-172.1,273.1
	c-0.1,0.1-0.3,0.2-0.4,0.4c-0.1-0.2-0.1-0.4-0.2-0.6C-172.6,273-172.4,273.1-172.1,273.1z M-197.5,291.5l0,0.2l0,0
	C-197.4,291.6-197.6,291.7-197.5,291.5z M-194.6,299.4c3.2,0,6.1,0.4,8.5,1.2c2.4,0.8,4.6,1.8,6.6,3.2l-5,8.2
	c-1.7-1.2-3.3-2.1-5-2.7c-1.7-0.5-3.5-0.9-5.4-0.9c-1.5,0-2.6,0.3-3.1,0.6c-0.5,0.4-0.8,1-0.8,1.7c0,0.4,0.1,0.6,0.3,0.9
	c0.1,0.3,0.5,0.5,1,0.8c0.5,0.3,1.2,0.5,1.9,0.6c0.8,0.3,1.8,0.5,3.1,0.8c2.3,0.5,4.4,1.2,6.2,1.9c1.7,0.6,3.1,1.5,4.2,2.4
	s1.9,2.1,2.4,3.3c0.5,1.3,0.8,3,0.8,4.6c0,2.2-0.4,4-1.2,5.5c-0.8,1.5-1.8,2.8-3.2,3.7c-1.4,1-3.1,1.7-4.9,2.2
	c-1.9,0.5-4,0.6-6.3,0.6c-3.1,0-6.1-0.4-8.8-1.3c-2.8-0.9-5.2-1.9-7.2-3.2l5-8.2c0.6,0.5,1.5,0.9,2.4,1.4c0.9,0.5,1.9,0.9,2.8,1.2
	c1,0.4,1.9,0.6,3,0.9s1.9,0.4,2.8,0.4c1.9,0,3.2-0.1,3.9-0.5c0.6-0.4,1-1,1-1.9c0-0.4-0.1-0.6-0.3-1c-0.3-0.3-0.5-0.5-1-0.9
	c-0.5-0.4-1.2-0.5-1.9-0.8c-0.9-0.1-1.9-0.4-3.2-0.8c-2.3-0.5-4.2-1.2-5.9-1.7c-1.7-0.6-3.1-1.4-4.2-2.3c-1.2-0.9-1.9-2.1-2.6-3.3
	c-0.2-0.5-0.3-1-0.5-1.5l0,0l0.2-0.1l0.1-0.1l0.1-0.1l0.2-0.2l0.1-0.1c0.1-0.1,0.3-0.2,0.4-0.4l0.1-0.1l0.2-0.2l0.2-0.2l0.2-0.2
	l0.2-0.2l0,0l0.3-0.3l0.2-0.3l0-0.1l0.3-0.3l0.2-0.1c0.2-0.1,0.4-0.3,0.4-0.6l0.1-0.2l0.2-0.2l0.1-0.1l0,0c0.1-0.1,0.2-0.2,0.2-0.4
	l0.2-0.1c0.2-0.2,0.3-0.3,0.4-0.6l0.1-0.1l0.2-0.2c0.1-0.1,0.2-0.2,0.3-0.4l0.2-0.2l0.1-0.2c0.1-0.1,0.2-0.2,0.2-0.4l0,0l0.2-0.2
	l0.1-0.1c0.1-0.1,0.2-0.3,0.3-0.4l0.1-0.2l0.2-0.3l0.1-0.1l0,0l0,0l0.1-0.1c0.1-0.1,0.2-0.2,0.2-0.3c0.3-0.3,0.5-0.6,0.6-0.9
	c0.1-0.2,0.1-0.3,0.3-0.4c0.1-0.1,0.2-0.3,0.2-0.4l0.1-0.1c0.3-0.3,0.4-0.6,0.5-0.8l0,0l0.1-0.1c0.1-0.1,0.2-0.2,0.3-0.4l0.1-0.2
	l0,0c0.1-0.2,0.2-0.3,0.3-0.5c0.2-0.2,0.3-0.4,0.3-0.6l0-0.1l0,0l0.2-0.3l0.1-0.1l0.1-0.1l0.1-0.1c0.2-0.2,0.4-0.5,0.6-0.8l0-0.1
	c0.1-0.2,0.1-0.3,0.2-0.5l0.1-0.2C-196.8,299.5-195.7,299.4-194.6,299.4z M-209.8,313.5c0.1-0.1,0.1-0.1,0.3-0.3
	c-0.3,0.3-0.6,0.7-1,1c0.3-0.4,0.4-0.5,0.7-0.8L-209.8,313.5z M-202.8,304.4L-202.8,304.4l0.1-0.1l0.1-0.1l0,0L-202.8,304.4
	L-202.8,304.4z M-200.8,301.6c0.1-0.1,0.2-0.4,0.3-0.4l0.1,0l-0.2,0.3L-200.8,301.6L-200.8,301.6L-200.8,301.6z M-199.9,300.1
	L-199.9,300.1c0.1-0.1,0.1-0.3,0.2-0.5L-199.9,300.1z M-198.2,296c0.1,0,0.1,0.2,0,0.4C-198.3,296.5-198.2,296.2-198.2,296z
	 M-197.8,294.8l0.1-0.4l0,0C-197.7,294.5-197.7,294.6-197.8,294.8z M-198.7,290.3c-0.2,0-0.3,0-0.3-0.1l0.3-0.2L-198.7,290.3z
	 M-199.1,290.2L-199.1,290.2l0.1-0.1l0.1,0l0,0l-0.1-0.1l0.2,0.1L-199.1,290.2z M-201.3,253.2c-0.2,0.3-0.3,0.6-0.3,0.9
	c-0.3-0.3-0.7-0.5-1.1-0.5c0-0.1,0-0.3,0-0.4l-0.1-0.2C-202.4,253.1-201.9,253.2-201.3,253.2z M-208,258.1L-208,258.1
	c0.5,0,1.1,0,1.7-0.1c0.6-0.1,1.1-0.4,1.6-0.7c0.5,0.4,1.1,0.6,1.8,0.5c-0.2,1.3-0.3,2.6,0,3.9c0.3,1.5,0.9,2.8,1.6,4
	c-1.1,0.5-1.7,1.8-1.5,3c0.2,1,0.9,1.7,1.7,2c-0.6,0.3-1.3,0.7-1.9,1.2l-0.2-0.2c0.1-0.5,0-1-0.1-1.6c-0.4-1.8-1.6-3.1-3.2-3.7
	c0.6-0.4,0.9-1.2,0.7-1.9c-0.2-1-1.3-1.7-2.3-1.5c-1.1,0.2-1.7,1.3-1.5,2.3c0.1,0.4,0.3,0.7,0.5,0.9l-0.1,0
	c-0.9,0.2-1.6,0.6-2.2,1.2c0-0.5,0-1-0.1-1.5C-208.9,264.4-207.3,261.3-208,258.1z M-203.5,289L-203.5,289l-0.6,0.1
	C-203.8,288.9-203.8,289.1-203.5,289L-203.5,289z M-209.3,290.5l-0.1,0.2l-0.2,0C-209.5,290.5-209.4,290.5-209.3,290.5L-209.3,290.5
	z M-211.1,291.4L-211.1,291.4l0.5-0.3l0,0l0.1,0.1c0.3-0.2,0.5-0.2,0.8-0.4l-0.1,0.1l0,0l0,0l-0.1,0.1c-0.3,0.1-0.4,0.1-0.8,0.4
	c-0.1,0-0.3,0.2-0.5,0.2l0,0L-211.1,291.4L-211.1,291.4L-211.1,291.4L-211.1,291.4z M-211,291.2c0.1-0.1,0.2-0.2,0.3-0.2l-0.1,0.1
	l0,0.1l0,0.1l-0.1,0L-211,291.2c0.1,0,0.1,0,0.1,0L-211,291.2z M-211.5,291.6c-0.2,0-0.4,0.2-0.6,0.3
	C-211.9,291.7-211.5,291.5-211.5,291.6z M-212.6,292.1c0.3-0.1,0.2-0.1,0.3-0.1c0.2-0.1,0.3-0.2,0.3-0.2l0.1-0.1
	c0,0.1,0.5-0.1,0.3,0l-0.1,0c-0.3,0.1-0.5,0.1-0.9,0.4C-212.7,292.2-212.8,292.3-212.6,292.1z M-213.3,292.4L-213.3,292.4
	L-213.3,292.4L-213.3,292.4c0.2-0.2,0.4-0.2,0.3-0.2L-213.3,292.4L-213.3,292.4z M-213.9,292.8L-213.9,292.8L-213.9,292.8
	L-213.9,292.8l0.2-0.1l0,0l0.1,0l0.1,0l0,0c-0.2,0.1-0.4,0.2-0.6,0.3C-214.1,292.9-214,292.9-213.9,292.8z M-215,293.4l0.2,0
	c-0.2,0.1-0.3,0.2-0.4,0.2L-215,293.4z M-215.3,293.6l-0.1,0.1l-0.1,0.1c-0.1-0.1-0.6,0.4-0.5,0.2
	C-215.8,293.8-215.5,293.6-215.3,293.6z M-216.8,294.4l0.3-0.2c-0.2,0.1-0.3,0.2-0.5,0.3l0-0.1L-216.8,294.4z M-218.9,295.6
	L-218.9,295.6c-0.3,0.2-0.4,0.3-0.7,0.5l0.4-0.3L-218.9,295.6z M-219.6,296.1c-0.2,0.2-0.6,0.3-0.5,0.3
	C-219.9,296.2-219.7,296.1-219.6,296.1z M-220.3,296.5l0.1,0l0,0L-220.3,296.5L-220.3,296.5l0,0.1l-0.1,0l-0.1,0L-220.3,296.5z
	 M-220.7,296.8l0.1,0l-0.2,0.2l0,0L-220.7,296.8z M-221.1,297.1c-0.2,0.2-0.4,0.2-0.6,0.4c0,0-0.3,0.1-0.1,0
	C-221.6,297.5-221.3,297.2-221.1,297.1z M-226.3,264.4c-0.1,0.3-0.2,0.5-0.3,0.8c0-0.1,0-0.3-0.1-0.4l-0.1-0.2
	C-226.6,264.6-226.4,264.5-226.3,264.4z M-226.9,268.2c0,0.4,0.1,0.8,0.2,1.3c-0.2-0.2-0.5-0.4-0.8-0.3l-0.2,0.1
	C-227.2,268.9-227,268.6-226.9,268.2z M-228.8,270.4c0.4-0.2,0.7-0.5,1.1-0.8c-0.1,0.2-0.1,0.4,0,0.5c0.1,0.4,0.5,0.6,0.9,0.4
	c0.3-0.1,0.4-0.3,0.4-0.6c0.8,2.3,2.6,4,4.7,4.8l-0.1,0.3c-0.2,0-0.4,0-0.7,0.1c-0.3,0.1-0.5,0.2-0.7,0.4l-1.5,0.5
	c-0.5-0.8-1.3-1.4-2.1-1.7c-0.7-1.1-1.8-2-3-2.6C-229.4,271.3-229.1,270.9-228.8,270.4z M-222.1,297.8L-222.1,297.8l0.2-0.1
	c-0.3,0.2-0.5,0.3-0.6,0.4C-222.4,298-222.3,298-222.1,297.8z M-222.7,298.1l0.2-0.1l0-0.1l0.2-0.1l0.2-0.1
	c-0.1,0.1-0.3,0.2-0.3,0.3l-0.1,0.1L-222.7,298.1z M-222.8,298.2L-222.8,298.2c-0.2,0.2-0.2,0.2-0.4,0.3l-0.2,0.1l0.1-0.1l0.2-0.1
	C-223.4,298.6-223,298.2-222.8,298.2z M-224.9,299.6l-0.1,0.1c-0.1,0.1-0.3,0.2-0.4,0.3l0,0l0.2-0.1l0.1-0.1l0,0
	c-0.3,0.2-0.3,0.3-0.5,0.4l0.1-0.1c0.2-0.2,0-0.1,0-0.1c0.2-0.1,0.5-0.3,0.8-0.6c0.1,0,0.3-0.1,0.4-0.2c-0.3,0.3-0.5,0.3-0.8,0.6
	C-225.1,299.8-225.1,299.7-224.9,299.6z M-267.4,280.7c0.5-1,0.5-2.2,0.1-3.2c0.3,0,0.6-0.2,0.9-0.3c0.1,0.5,0.3,1,0.5,1.4
	c-0.3,0.2-0.6,0.4-0.9,0.6l1.2,2c-0.8,0.6-1.5,1.4-2,2.4c0-0.3-0.1-0.6-0.3-0.7c-0.4-0.2-0.8,0-1,0.3c-0.2,0.4,0,0.8,0.3,1
	c0.3,0.1,0.5,0,0.7-0.1c-1,2.2-0.9,4.6,0.1,6.7l-0.3,0.1c-0.2-0.2-0.3-0.3-0.6-0.4c-0.4-0.2-0.8-0.2-1.2-0.1c0-1.3-0.5-2.7-1.4-3.8
	c0.2-1.2,0.1-2.5-0.2-3.7C-269.8,283-268.2,282.2-267.4,280.7z M-268.3,295.9l-1.1,0.9c-0.4-0.5-0.9-0.9-1.4-1.3
	c0.2-0.3,0.2-0.7,0.2-1.1c0.4,0.1,0.7,0,1-0.2C-269.3,295-268.9,295.5-268.3,295.9z M-284.7,297.7l-0.1,0.2c-0.4,0-0.7,0-1,0.1
	c-0.3-0.1-0.5-0.3-0.8-0.4c0.1-0.4,0-0.8,0-1.3c0.9,0.4,1.9,0.2,2.5-0.6c0.5-0.8,0.4-1.8-0.2-2.4l0.1-0.2c1.1,0.1,2.2-0.3,3.2-1
	c0.3,0.7,0.6,1.3,1.1,1.9C-281.8,294.6-283.5,295.9-284.7,297.7z M-262.3,338.6c-2.8,0-5.3-0.5-7.5-1.5c-2.1-1-3.9-2.4-5.4-4.1
	c-1.4-1.7-2.6-3.7-3.3-6.2c-0.8-2.3-1.2-5-1.2-7.7c0-3.1,0.4-5.8,1.3-8.1c0.9-2.4,2.1-4.5,3.6-6.2c1.5-1.7,3.5-3,5.5-4
	c2.1-0.9,4.5-1.3,7-1.3c2.3,0,4.2,0.3,5.9,0.8c1.7,0.5,3.1,1.2,4.4,2.2c1.3,0.9,2.3,2.1,3.1,3.5c0.8,1.4,1.5,3,2.2,4.8l-9.5,3.7
	c-0.4-0.9-0.6-1.7-1-2.3c-0.4-0.8-0.8-1.3-1.3-1.8c-0.5-0.5-1-0.9-1.7-1.2s-1.4-0.4-2.2-0.4c-1,0-2.1,0.3-2.8,0.8
	c-0.8,0.5-1.4,1.3-1.9,2.2c-0.5,0.9-0.9,2.1-1.2,3.2c-0.3,1.3-0.4,2.7-0.4,4.1c0,1.4,0.1,2.8,0.4,4c0.3,1.3,0.6,2.3,1.2,3.3
	c0.5,0.9,1.2,1.7,1.9,2.2c0.8,0.5,1.8,0.8,3,0.8c0.8,0,1.5-0.1,2.2-0.4c0.6-0.3,1.2-0.5,1.7-1c0.5-0.4,1-1,1.4-1.7
	c0.5-0.6,0.9-1.4,1.4-2.3l8.9,4.8c-0.5,1.3-1.3,2.4-2.1,3.7c-0.9,1.2-1.9,2.2-3.2,3.1c-1.3,0.9-2.7,1.7-4.4,2.2
	C-258,338.2-260,338.6-262.3,338.6z M-247,319.3c-0.2,0.2-0.1,0.1-0.3,0.4c0.2-0.2,0.4-0.5,0.6-0.7
	C-247,319.3-246.7,318.9-247,319.3z M-247.1,318.9c-0.4,0.5-0.1,0.1-0.2,0.3c-0.2,0.3,0,0-0.3,0.3
	C-247.3,319.2-247.4,319.3-247.1,318.9z M-247.5,319.5c0.3-0.3-0.1,0.1,0.3-0.3L-247.5,319.5L-247.5,319.5z M-246.9,318.8
	c-0.1,0.1-0.2,0.3-0.4,0.4l-0.1,0.1C-247.2,319.2-247,319-246.9,318.8z M-247.1,319.1l0.2-0.2c-0.1,0.1-0.2,0.3-0.4,0.4
	c0.1-0.1-0.1,0.1-0.2,0.2C-247.3,319.4-247.2,319.2-247.1,319.1z M-248.9,321.4c-0.2,0.2-0.6,0.7-0.3,0.3c0.3-0.4,1.5-1.8,1.2-1.4
	c-0.1,0.1-0.3,0.4-0.6,0.7C-248.5,321-248.7,321.2-248.9,321.4z M-248.6,322.1L-248.6,322.1c-0.1,0.1-0.1,0,0.1-0.1l0.1-0.1
	c0.3-0.3,0.3-0.3,0,0.1c0.5-0.6,0,0,0,0c0.3-0.3,0.5-0.6,0.7-0.8l0.2-0.2l-0.2,0.2C-248.1,321.5-248.3,321.8-248.6,322.1
	c0.2-0.1,0.3-0.3,0.4-0.4C-248.2,321.7-248.4,321.9-248.6,322.1L-248.6,322.1l0,0.1C-248.4,322-249.7,323.4-248.6,322.1z
	 M-248.9,322.3C-248.6,322-248.7,322.2-248.9,322.3C-249,322.6-249,322.5-248.9,322.3z M-248,321.4L-248,321.4
	c0.2-0.3,0.4-0.5,0.2-0.2C-247.9,321.3-247.9,321.3-248,321.4L-248,321.4z M-248.1,321.6c0.2-0.2,0.3-0.4,0.4-0.4l0.2-0.2l-0.1,0.1
	l-0.2,0.2l-0.1,0.1l0.1-0.1C-247.7,321.1-247.8,321.2-248.1,321.6z M-248.5,322.3L-248.5,322.3L-248.5,322.3c0-0.1,0.1-0.2,0.2-0.3
	C-248.6,322.3-248.2,321.8-248.5,322.3z M-248.1,321.9c0.1,0-0.3,0.4-0.6,0.8c0.1-0.1,0,0,0.2-0.3c0.1-0.2,0.3-0.4,0.3-0.4
	c-0.1,0.2-0.2,0.2-0.2,0.3C-248.3,322.2-248.2,322-248.1,321.9z M-248.5,322.5c0.1-0.1,0.2-0.2-0.1,0.1c-0.2,0.3-0.2,0.2-0.1,0
	L-248.5,322.5z M-247.7,321.9c-0.2,0.2-0.3,0.4-0.5,0.6l0.1-0.2l-0.3,0.3l0.2-0.3c0.3-0.3,0.2-0.2,0.5-0.6c-0.1,0.2-0.2,0.3-0.3,0.4
	L-247.7,321.9z M-248.7,323.6c-0.3,0.4-0.3,0.3-0.1,0.1C-248.6,323.3-248.9,323.7-248.7,323.6z M-248.9,323.9
	c-0.1,0.1-0.2,0.3-0.3,0.4c-0.3,0.3-0.4,0.4-0.1,0C-249.3,324.4-249.1,324.1-248.9,323.9z M-249,323.8l0.1-0.1l0.3-0.3l0.1-0.1
	C-248.7,323.5-248.9,323.6-249,323.8z M-248.5,323C-248.4,322.8-248.6,323.1-248.5,323C-248.9,323.5-248.9,323.5-248.5,323z
	 M-248.7,323c0.2-0.2,0.4-0.4,0.6-0.7c-0.1,0.2,0,0-0.2,0.2C-248.4,322.8-248.5,322.9-248.7,323C-248.9,323.4-248.9,323.3-248.7,323
	z M-248.4,323c0.2-0.2,0.2-0.2-0.1,0.2C-248.4,323-248.6,323.3-248.4,323z M-248.3,323c0.3-0.4,0.5-0.6,0.3-0.3
	C-248.5,323.2-248.4,323.1-248.3,323z M-247.9,322.4c-0.3,0.4-0.1,0.1-0.1,0.1l-0.2,0.3C-248.2,322.7-248.1,322.6-247.9,322.4
	C-248,322.4-247.8,322.2-247.9,322.4z M-248,322.2C-248.1,322.3-248.2,322.4-248,322.2l0.2-0.3L-248,322.2
	C-247.9,322.1-247.9,322.1-248,322.2z M-248.1,322.2C-248,322.1-248.1,322.3-248.1,322.2c-0.2,0.2-0.1,0.1-0.3,0.3
	c-0.1,0.1-0.2,0.2-0.5,0.5c0.3-0.4,0.7-0.8,1-1.2C-248,322.1-247.7,321.8-248.1,322.2z M-249,323.3c0.2-0.3,0.5-0.6,0.8-0.9
	c-0.3,0.4-0.6,0.8-0.9,1.1C-249,323.4-249,323.4-249,323.3z M-249.2,321.8C-249,321.6-248.9,321.5-249.2,321.8
	C-249.3,322-249.4,322.1-249.2,321.8z M-248.4,320.2l0.1-0.2c-0.3,0.3,0.1-0.1,0,0.1c-0.1,0.2-0.3,0.3-0.4,0.5
	C-248.3,320.2-248.6,320.5-248.4,320.2z M-248.4,320.1c0.1-0.1,0.3-0.3,0.1-0.1C-248.5,320.3-248.5,320.3-248.4,320.1z
	 M-248.6,320.9c-0.2,0.2,0.2-0.2-0.1,0.2C-248.9,321.4-248.9,321.3-248.6,320.9z M-248.8,320.5c-0.2,0.2-0.5,0.6-0.3,0.4
	C-249.1,320.8-248.7,320.3-248.8,320.5z M-249,321.5c-0.4,0.4-0.1,0.1-0.1,0.1C-249.1,321.5-248.8,321.3-249,321.5z M-248,319.7
	c-0.1,0.1-0.2,0.3-0.3,0.4c0.1-0.2-0.1,0.1,0.1-0.2C-248,319.7-247.9,319.5-248,319.7z M-248.2,319.8c-0.2,0.2,0-0.1,0-0.1l0.2-0.2
	C-248.1,319.7-248,319.5-248.2,319.8z M-248,319.5l-0.3,0.3c0.1-0.2,0.1-0.1,0.4-0.5C-248.1,319.6-247.7,319.1-248,319.5z
	 M-248.1,325.1l0.2-0.3c0.2-0.2,0.1-0.1,0.5-0.6c-0.1,0.1,0,0.1-0.3,0.4C-248,325.1-248,325.1-248.1,325.1z M-252.1,404.2
	c-0.4,0-0.8,0.2-1.2,0.3c0.2-0.9-0.3-1.9-1.2-2.2c-0.9-0.3-1.8,0.1-2.3,0.8l-0.3,0c-0.2-1.1-0.9-2.1-1.8-2.8
	c0.6-0.4,1.1-0.9,1.5-1.6c1.1,1.6,2.8,2.9,4.8,3.6l0.2,0.1c0.1,0.3,0.2,0.7,0.4,1C-252,403.6-252,403.9-252.1,404.2z M-242,340.4
	L-242,340.4L-242,340.4L-242,340.4l0-0.1c-0.4,0.2-0.2,0.1-0.2,0c-0.2,0.2-0.4,0.3-0.6,0.5c-0.1,0-0.3,0.1-0.5,0.3l0.3-0.1
	c-0.1,0.1-0.2,0.2-0.3,0.2l-0.1,0.1c-0.2,0.1-0.4,0.3-0.5,0.2l0.2-0.1l0,0c-0.3,0.2-0.6,0.5-1,0.7l-0.8,0.4l0,0l0.1-0.1l0.1-0.1l0,0
	c0.1,0,0.3-0.2,0.5-0.3l-0.1,0l-0.4,0.3c0-0.1-0.4,0.2-0.5,0.2c0.5-0.3,0.9-0.5,1.3-0.8l0.1-0.1c-0.2,0.1-0.6,0.3-0.9,0.5
	c-0.3,0.2-0.6,0.3-0.6,0.2c-0.1,0.1-0.3,0.2-0.4,0.3l0,0l0,0c-0.4,0.1-0.7,0.3-1.1,0.5c-0.2,0.1-0.4,0.2-0.6,0.3
	c-0.2,0.1-0.4,0.1-0.5,0.2l0,0l-0.1,0l-0.1,0l0,0l-0.4,0.1c0.2-0.1,0.3-0.2,0.4-0.2l0,0c-0.3,0.1-0.6,0.2-0.9,0.4l-0.1-0.1
	c-0.1,0.1-0.1,0.1-0.2,0.2l-0.1-0.1c-0.2,0.1-0.2,0.1-0.4,0.2l0.2-0.3c-0.2,0.1-0.5,0.2-0.6,0.2l0.1-0.1l0,0l0,0l0.3-0.1l0,0
	c-0.3,0.1-0.5,0.2-0.9,0.4c0.1-0.1-0.2,0-0.1-0.1l0,0l-0.3,0.1l0.2-0.2l0-0.1c0.2-0.1,0.4-0.1,0.6-0.2l0,0l0,0l0,0l0-0.1
	c-0.4,0.3-0.6,0.3-0.9,0.4l-0.1,0.1l-0.1,0c-0.1,0.1-0.2,0.1-0.3,0.2l0.3-0.2l0,0l-0.1-0.1l-0.1,0.1l0,0l-0.2,0.1l0.1,0l0,0
	l-0.2,0.1l0,0c0,0-0.1,0.1-0.2,0.1c-0.1,0,0.1-0.2,0-0.1l0,0.1l-0.4,0.2l0,0l0,0l0.1-0.1l0.1,0l0,0l0,0l0,0c-0.2,0.1,0.1-0.1-0.1,0
	l-0.1,0.1c-0.1,0.1-0.2,0.1-0.3,0.2c-0.2,0.1-0.4,0.1-0.4,0.1l-0.1,0.1l-0.1,0.1l-0.2,0l0,0.1l-0.2,0c0.2-0.2,0.7-0.3,0.9-0.4l0-0.1
	c-0.8,0.3-1,0.2-1.9,0.6l-0.1-0.1c0.3-0.2,0.7-0.2,1.2-0.5l0,0c-0.6,0.2-1.3,0.6-1.4,0.3c-0.4,0.1-1,0.2-0.9,0l-0.2,0.1l0.2-0.1
	l0-0.1l-0.1-0.1l-0.2,0.1l0,0.1l0.2,0c-0.2,0.2-0.3,0.1-0.6,0.2l0,0c0.3-0.3-0.1-0.4-0.2-0.6l0.1,0l0.1-0.3c0.4-0.3,1-0.5,1.6-0.6
	l0,0l-0.1,0.1l-0.1,0.1l0,0l0.5,0c0.5-0.4,1.1-0.1,1.5-0.4c0.1,0.1,0.3,0.1,0.5,0c0.2-0.1,0.5-0.2,0.7-0.2c-0.1,0-0.4,0.1-0.3,0l0,0
	c0.3-0.1,0.5,0,0.8-0.2c0.2,0,0.7-0.1,0.9-0.3l0.1,0l0,0l0,0l0,0.1c0.2-0.1,0.6-0.3,0.7-0.3c-0.1,0.1-0.2,0-0.3,0.1l0,0
	c0.1,0,0.3,0,0.4-0.1l0.1-0.1l0.1,0c0.2,0,0.4-0.1,0.6-0.1c0.2-0.1,0.5-0.2,0.8-0.3c0.3-0.2,0.9-0.6,1.2-0.7l0.1-0.2
	c-0.1,0-0.2,0.1-0.3,0.2l0,0.1l-0.1,0.1c-0.2,0.1-0.5,0.1-0.8,0.3l0-0.1c-0.2,0.2-0.2,0.1-0.4,0.2l0,0l0,0l-0.1,0
	c0.2-0.1,0.5-0.3,0.6-0.4l0-0.1c-0.3,0.1-0.6,0.3-0.8,0.4l-0.1,0l0,0l0.1,0l0.1,0l0,0c-0.2,0-0.4,0.2-0.5,0.1l0.2-0.1l0-0.1
	c-0.1,0-0.4,0.2-0.4,0l-0.2,0.1c-0.1-0.1-0.2-0.1-0.5,0c0-0.1-0.2,0-0.3-0.2c0.5-0.2,0.9-0.3,1.3-0.4c0.4-0.1,0.9-0.3,1.5-0.6l0,0
	c0.2,0,0.5-0.2,0.9-0.4c0.1,0.1,0.6-0.1,1-0.4c-0.3,0.2-0.7,0.4-0.8,0.4c0.2-0.1,0.5-0.3,0.7-0.4c0.2-0.1,0.4-0.2,0.6-0.2l0-0.1
	l0.4-0.2c-0.1,0.1-0.4,0.3-0.5,0.4l0,0c0.3-0.2,0.6-0.4,1-0.6l0,0.1c0.2-0.1,0.6-0.3,0.4-0.2l0,0l0.1-0.1l0,0l0.1-0.1l0.1-0.1l0,0
	l-0.2,0.1l-0.1,0.1l0,0l0,0l-0.1,0.1l-0.3,0.1c0.2-0.2,0.2-0.1,0.5-0.3c0.1-0.1,0-0.1-0.2,0l0.3-0.2l0-0.1c-0.3,0.2-1.1,0.8-1,0.6
	c-0.1,0.1-0.3,0.1-0.4,0.2l-0.1,0.1c-0.1,0-0.1,0-0.2,0.1c-0.7,0.4-1.3,0.6-1.8,0.8c-0.5,0.2-1,0.3-1.4,0.4c0.4-0.3,0.5-0.3,0.8-0.5
	c-0.2,0-0.4,0.1-0.7,0.2l-0.1-0.1c-0.2,0.2-0.2,0-0.6,0.2l-0.2,0c0.2-0.1,0.2,0,0.3-0.1l0-0.1c0.3-0.1,0.5-0.3,0.8-0.4
	c0.3-0.1,0.5-0.2,0.8-0.4c0.2-0.1,0.5-0.2,0.8-0.4c0.3-0.1,0.6-0.3,0.8-0.3c0.2-0.1,0.4-0.2,0.6-0.3c0.5-0.2,0.9-0.4,1.3-0.6
	c0.3-0.2,0.6-0.3,0.8-0.5c0.3-0.1,0.5-0.3,0.8-0.4l0,0l0,0.1c0.2-0.1,0.5-0.2,0.6-0.4l0-0.1l0.1,0.1c0.3-0.2,0.7-0.4,1.1-0.7
	c0.4-0.2,0.7-0.5,1.1-0.8c0.2-0.1,0.4-0.2,0.6-0.4l0.1-0.1c0.5-0.1,1.4-0.6,2-1l-0.2,0.1l0.1-0.1l0.1-0.1l0.1-0.1l0.1-0.1
	c0.1-0.1,0.2-0.1,0.4-0.3c0.1,0,0.2,0,0.3-0.1l0.1-0.2l0.1-0.1c0.4-0.2,0.8-0.4,1.2-0.7c0.2-0.1,0.4-0.3,0.7-0.5
	c0.2-0.2,0.5-0.4,0.7-0.6c0.2,0,0.5-0.4,0.7-0.5l0.1-0.1l0.3-0.2l0.3-0.2l0-0.1c0.2-0.1,0.5-0.3,0.8-0.5c0.3-0.2,0.6-0.4,0.9-0.7
	c0.6-0.5,1.2-1,1.5-1.2l0.2-0.2c0.3-0.3,0.7-0.6,1-0.8l0.3-0.2c0.2-0.2,0.5-0.4,0.7-0.6c0.3-0.3,0.6-0.5,0.9-0.8
	c0.5-0.5,0.8-0.7,1.2-1.2l0.2-0.1l0,0c0-0.1,0.1-0.2,0.3-0.4c0.1-0.1,0.3-0.3,0.4-0.4l-0.1,0.1c0.2-0.2,0.4-0.5,0.7-0.7
	c0.3-0.3,0.6-0.5,0.8-0.7c-0.1,0.1-0.2,0.2-0.4,0.4l-0.1,0.1l-0.2,0.1c-0.2,0.2-0.4,0.4-0.6,0.7l0.2-0.1l-0.1,0.1l-0.1,0.1l-0.1,0.1
	l-0.1,0.1c0.1-0.1,0.2-0.2,0.4-0.3c0.2-0.2,0.3-0.3,0.4-0.4c0.2-0.1,0.4-0.3,0.6-0.5c0.1-0.1,0.3-0.3,0.4-0.4
	c0.2-0.2,0.3-0.3,0.5-0.5l0.1-0.1c0.1-0.1,0.2-0.2,0.4-0.3c0.1-0.2,0.3-0.3,0.2-0.3l0.1-0.1l0,0l0,0l0,0l0,0.1
	c0.2-0.3,0.5-0.5,0.7-0.8c-0.1,0-0.3,0.3-0.2,0.1l0.2-0.1l0.1-0.1l0.1-0.1l0,0c-0.1,0.2,0.1-0.1,0.2-0.1c0.2-0.3,0.4-0.5,0.6-0.7
	c-0.1,0.1-0.1,0.1-0.1,0l0,0l0.2-0.2c0.2-0.2,0.4-0.4,0.6-0.6c0.2-0.2,0.4-0.4,0.5-0.6c0,0.1-0.3,0.3-0.1,0.2
	c0.2-0.2,0.4-0.4,0.5-0.6l0.1,0l0.3-0.3l-0.1,0l0.1-0.1l0.1-0.1l0.1-0.1l0,0l0.1,0c0.2-0.2,0.4-0.4,0.6-0.6c0.2-0.2,0.3-0.4,0.4-0.5
	l0.2-0.2l0.1-0.1l0.2-0.1c0-0.1,0.2-0.4,0.5-0.6l0.1-0.1l0.1-0.1c0.3-0.3,0.6-0.6,0.9-0.9c0.2-0.3,0.5-0.6,0.7-0.9
	c0.3-0.4,0.5-0.7,0.8-1.1c0.2-0.2,0.4-0.5,0.5-0.7c0.1-0.2,0.3-0.5,0.5-0.7l0-0.1c0.2-0.2,0.4-0.5,0.3-0.5l0.1-0.1l0-0.2
	c0.6-0.7,0.7-1.2,1.1-1.9l0,0c0.6-1.1,0.9-2,1.1-2.9l0.1-0.3c0.1-0.7,0.1-1.3,0-1.8c-0.3-1.1-1.3-1.7-2.7-1.7l0,0l-0.2,0.1l0.1,0
	l0,0l-0.2,0.1l0-0.1c-0.1,0-0.2,0-0.3,0.1l-0.3,0.1l-0.3,0.1c-0.1,0-0.2,0.1-0.4,0.1l0,0l0,0l-0.2,0.1c-0.9,0.1-2.1,0.6-3.2,1
	c-0.5,0.2-0.9,0.4-1.3,0.6l-0.3,0.1c-0.3,0.2-0.4,0.2-0.7,0.4c-0.2,0-0.8,0.5-1,0.5c-0.9,0.6-1.6,0.9-2.6,1.5
	c0.2,0.1,0.4,0.3,0.6,0.5c0.3,0.4,0.9,0.6,1.3,0.8c0.7,0.5,1.5,1,2.2,1.5c0.2,0.1,0.4,0.3,0.6,0.4c1,0.5,1.7,1.3,2.2,2.2
	c0.3,0.6,0.6,1.2,1,1.8c-0.2,0.3-0.5,0.6-0.7,0.8l-0.2,0.2c-0.2,0.2-0.4,0.4-0.5,0.5c-0.1,0.1-0.2,0.2-0.3,0.3
	c-0.1,0.1-0.2,0.2-0.3,0.3c0,0-0.1,0.1-0.3,0.3c-0.1,0.1-0.2,0.2-0.3,0.4l0,0l-0.2,0.2l-0.2,0.3l0,0l-0.2,0.3l-0.2,0.2l-0.3,0.3
	c-0.1,0.2-0.3,0.4-0.5,0.6l-0.3,0.3l-0.2,0.2l-0.3,0.2c-0.1,0.1-0.2,0.3-0.3,0.5l-0.1,0.1l-0.2,0.2l-0.2,0.2l0,0l-0.1,0.1l-0.3,0.3
	l-0.1,0.2l-0.1,0.1l-0.1,0.1l-0.1,0.1l0,0c-0.2,0.1-0.3,0.3-0.4,0.4l0,0l-0.3,0.3l-0.2,0.2l-0.2,0.2c-0.1,0-0.2,0.1-0.3,0.2
	c-0.3,0.2-0.6,0.5-0.9,0.8c-0.1,0.1-0.3,0.3-0.5,0.5l-0.1,0.1l-0.1,0.1l-0.3,0.2c-0.1,0.1-0.2,0.2-0.3,0.3l-0.2,0.2
	c-0.2,0.2-0.4,0.4-0.5,0.5c-0.2,0.2-0.4,0.4-0.6,0.6c-0.2,0.2-0.4,0.3-0.6,0.5l-0.2,0.2c0,0.1-0.1,0.1-0.2,0.2l-0.2,0.1l-0.1,0.1
	l-0.3,0.3l-0.2,0.2c-0.2,0.1-0.4,0.3-0.7,0.5l-0.1,0.1l-0.2,0.1l-0.1,0.1l-0.2,0.2c-0.3,0.2-0.6,0.5-0.9,0.7
	c-0.2,0.2-0.4,0.3-0.6,0.5c-0.3,0.2-0.6,0.4-0.8,0.6c-0.3,0.2-0.5,0.4-0.7,0.4c-0.2,0.1-0.4,0.3-0.5,0.5l0,0l-0.3,0.2l-0.2,0.2
	l-0.2,0.2l-0.1,0.1l-0.3,0.2c-0.2,0.2-0.5,0.4-0.7,0.5c-0.2,0.2-0.4,0.3-0.6,0.4c-0.3,0.2-0.7,0.4-1,0.5c-0.1,0.1-0.3,0.1-0.4,0.2
	l-0.1,0.1l-0.1,0.1c-0.2,0.1-0.3,0.1-0.4,0.3l-0.2,0.1l-0.3,0.2l0,0.1l-0.1,0l-0.1,0.1l-0.1,0.1l-0.1,0.1l0,0
	c-0.5,0.3-0.9,0.5-1.1,0.5l0,0c-0.7-0.5-1.3-1-1.9-1.7c-0.4-0.4-0.5-0.9-0.7-1.4c-0.2-0.7-0.7-1.2-1.1-1.8l-0.2-0.1
	c-0.8-0.4-1.3-1.4-1.1-2.3l0-0.2c-0.1-0.4-0.2-0.8-0.3-1.3c0-0.1-0.1-0.3-0.2-0.3l0,0c-0.2,0.3-0.4,0.6-0.7,1l0,0l0.2-0.2l-0.2,0.2
	l0,0c0.1-0.1,0.2-0.3,0.3-0.4c0.1-0.2-0.3,0.3,0.1-0.2c-0.1,0.1-0.2,0.3-0.3,0.4l-0.1,0l0,0l0,0l0,0l-0.3,0.2
	c0.2-0.2,0.4-0.4,0.5-0.6c0-0.1-0.2,0.2-0.1,0c-0.2,0.3-0.5,0.6-0.7,0.8c0.4-0.5,0.2-0.3-0.2,0.1l0.2-0.3l0,0l-0.3,0.3
	c0.5-0.6-0.1,0-0.2,0.1c0.2-0.2,0.3-0.4,0.5-0.7c-0.1,0.2-0.3,0.4-0.4,0.5c-0.3,0.3,0.3-0.5,0.9-1.2c-0.3,0.4-0.5,0.7-1.1,1.3
	c0,0,0.2-0.3,0.4-0.6c-0.3,0.4,0,0-0.7,0.8c0,0-0.1,0,0.5-0.6l-0.4,0.5c-0.5,0.6,0.4-0.4-0.1,0.1c-0.7,0.8-0.2,0.1-0.7,0.6
	c0.4-0.4,0.6-0.8,0.8-0.9c0.5-0.6-0.7,0.8-0.8,0.8c0.6-0.7,0.1-0.1-0.2,0.1c0.5-0.6,0.3-0.4,0.1-0.2c0.4-0.5,0.1-0.1,0.4-0.5
	c0.3-0.3,0.5-0.6,0.8-0.9c-0.5,0.6-0.6,0.7-1.2,1.3c0.2-0.2,0,0,0.2-0.3c0.5-0.6,0.1-0.1,0.7-0.8c0.4-0.4-0.1,0.2,0.3-0.3
	c0.4-0.5-0.3,0.3,0.3-0.4c-0.3,0.4-0.2,0.2-0.5,0.5c0.5-0.7,0.3-0.3,0.3-0.4l0,0l0.1-0.1l0.1-0.2c-0.5,0.6-0.4,0.4-0.7,0.7
	c-0.4,0.4-0.6,0.8-0.4,0.5c-0.5,0.6-0.4,0.4-0.3,0.3c-0.1,0.1-0.3,0.3-0.1,0.1l0.3-0.3c0.2-0.3,0.5-0.5,0.5-0.6
	c0.3-0.4,0.3-0.4,0.7-0.9c-0.8,1-0.2,0.2-0.8,0.9c0.2-0.2,0.1-0.1,0.3-0.3c0.3-0.3-0.6,0.7-0.1,0.1c-0.3,0.4-0.6,0.7-0.9,1.1
	c0,0,0.3-0.4,0.5-0.7c-0.2,0.2-0.4,0.5-0.6,0.7c0,0,0.1-0.2-0.1,0.1c0.4-0.5,0.7-0.9,1.1-1.4c-0.2,0.2-0.4,0.5-0.6,0.7l-0.1,0.1
	l-0.1,0.1l0,0l0,0l0,0c0,0,0,0,0.1-0.2l0,0c0,0,0,0-0.2,0.2c0.2-0.3,0.4-0.5,0.6-0.8c-0.4,0.4-0.1,0.1-0.1,0
	c-0.6,0.7-0.4,0.5-0.4,0.4c0.2-0.2,0.3-0.4,0.5-0.6c-0.5,0.6-0.3,0.3-0.3,0.3c-0.1,0.2-0.3,0.3-0.4,0.5c0,0-0.1,0.1-0.3,0.3
	c0.1-0.1,0.1-0.2,0.1-0.2l0,0l0,0c0,0,0,0,0.3-0.4l0,0.1c0.2-0.2,0.4-0.5,0.5-0.6c0,0-0.1,0.1-0.3,0.4c1-1.2-0.5,0.5,0-0.2
	c-0.6,0.7-0.5,0.6-0.9,1l0.3-0.4c0.4-0.5,0.2-0.2,0.5-0.6c0.2-0.3,0,0-0.3,0.3c-0.1,0.1,0,0.1-0.3,0.4c0.2-0.2,0.2-0.3,0.3-0.4l0,0
	c0.2-0.2,0.4-0.4,0.7-0.9c-0.1,0.1,0.1-0.2-0.3,0.4l0.4-0.4c-0.5,0.6-0.7,0.8-0.1,0c-0.6,0.8-0.4,0.4-0.2,0.2
	c-0.3,0.4-0.1,0.1-0.4,0.4c-0.2,0.3,0,0-0.1,0.1c0.4-0.5,0.4-0.5,0.7-0.8c0,0,0.1-0.2,0.6-0.8c0.1-0.1,0.1-0.1,0.1-0.1
	c0.3-0.4,0.2-0.3,0.2-0.3c-0.1,0.1-0.2,0.3-0.4,0.5c0,0-0.1,0.1-0.2,0.3l0,0c-0.2,0.2-0.3,0.4-0.4,0.5c-0.8,0.9,0.5-0.7,0.4-0.6
	c-0.4,0.5-0.8,1-1.2,1.4c0.3-0.4,0.3-0.4,0.7-0.9c-0.4,0.4-0.8,0.9-1.1,1.3c0.6-0.7,0.6-0.7,0.9-1.1l0.3-0.3l0,0
	c-0.1,0.1-0.1,0.2-0.2,0.3c0,0,0.3-0.4-0.2,0.2c0,0,0.3-0.3,0.5-0.6l0,0c-0.3,0.3,0,0-0.6,0.6c0.5-0.6,0.2-0.2,0.6-0.7
	c0.1-0.1-0.4,0.4-0.5,0.6c0-0.1,0.2-0.4-0.2,0.1c0.4-0.5,0.3-0.4,0,0c0.4-0.5,0.1-0.2,0.4-0.5c-0.2,0.3-0.2,0.3-0.6,0.7
	c0,0,0.2-0.3,0.4-0.6c0.1-0.1-0.4,0.5,0-0.1c-0.1,0.1-0.2,0.3-0.3,0.4c0.1-0.1,0,0.1-0.2,0.3l0-0.1l0.2-0.3c0.1-0.1-0.2,0.2,0.3-0.3
	c0.2-0.3-0.3,0.4,0.1-0.2c-0.1,0.1-0.2,0.2-0.1,0.1c-0.1,0.1-0.2,0.3-0.3,0.4c-0.2,0.3,0-0.1-0.2,0.2c0.1-0.2,0.3-0.3,0.4-0.5
	c-0.2,0.2-0.3,0.4-0.3,0.4c0.2-0.2,0.3-0.4,0.3-0.4c-0.1,0.1-0.2,0.3-0.3,0.4c0.3-0.4,0.4-0.5,0.4-0.5c0-0.1-0.2,0.1,0-0.1l0,0
	l0-0.1c0.1-0.2,0.3-0.3,0.4-0.5c0.1-0.2-0.5,0.5,0.1-0.2c-0.1,0.1-0.2,0.3-0.3,0.4c-0.2,0.3-0.1,0.1-0.3,0.3
	c0.1-0.2,0.2-0.3,0.3-0.4c0.2-0.2,0,0,0.1-0.1c-0.1,0.1-0.2,0.2-0.3,0.3c-0.2,0.3,0,0-0.1,0.1c0.1-0.1,0.2-0.3,0.3-0.4l-0.3,0.3
	c0.1-0.2,0.3-0.3,0.4-0.5l-0.2,0.1l-0.2,0.3c0,0-0.3,0.3-0.1,0.1c0.1-0.2,0.2-0.3,0.3-0.4c0.2-0.2-0.2,0.2-0.3,0.3
	c0.3-0.4,0.4-0.5,0.1-0.2c-0.3,0.4-0.3,0.3-0.4,0.5c0.1-0.1-0.3,0.4-0.1,0.2c0.1-0.2,0.1-0.1,0.1-0.2c0.3-0.4-0.2,0.2,0.1-0.1
	c-0.3,0.4-0.3,0.3-0.6,0.7c0.3-0.4-0.3,0.2,0.2-0.4l-0.2,0.2c-0.1,0.2,0.3-0.3,0.3-0.4c-0.6,0.7-0.2,0.2-0.1,0.1
	c-0.4,0.5-0.4,0.4-0.3,0.3c0.3-0.3,0.5-0.7,0.8-1c0.1-0.1,0,0.1,0.3-0.3c0,0,0,0,0.3-0.4c-0.3,0.4-0.2,0.3-0.5,0.6
	c-0.1,0.1,0.2-0.2-0.1,0.1c0.5-0.6,0.2-0.3,0-0.1c0.4-0.5,0.4-0.5,0.1-0.1c0.1-0.1,0.2-0.3,0.3-0.4c0.2-0.3-0.3,0.3-0.1,0
	c-0.1,0.2-0.3,0.3-0.4,0.5c-0.2,0.2,0.4-0.5,0,0c0.1-0.1,0.2-0.3,0.3-0.4c0.1-0.1-0.4,0.5-0.2,0.2c0.1-0.2,0.3-0.4,0.4-0.5
	c-0.2,0.2,0.2-0.3-0.3,0.2c0.1-0.2,0.3-0.3,0.4-0.5c-0.4,0.5-0.1,0.1-0.1,0.1c-0.1,0-0.6,0.7-0.2,0.2c-0.4,0.5-0.2,0.2-0.3,0.3
	c0.1-0.1,0.2-0.3,0.3-0.4c-0.5,0.5,0,0-0.5,0.5c-0.3,0.3-0.4,0.5-0.2,0.3l-0.3,0.3c-0.3,0.4-0.1,0.1-0.1,0.2
	c-0.1,0.1-0.2,0.3-0.3,0.4c0,0,0.4-0.6,0-0.1c0.2-0.2,0.3-0.4,0.5-0.6c0.2-0.3-0.1,0.1,0.2-0.3c-0.2,0.2-0.4,0.5-0.4,0.5
	c0.5-0.6,0.9-1,1.2-1.3l0.3-0.4c-0.1,0.2-0.4,0.5-0.2,0.2c-0.1,0.1-0.2,0.3-0.3,0.4c-0.2,0.2,0.2-0.2,0.4-0.5
	c-0.6,0.7-0.7,0.7-0.1,0c-0.3,0.4,0,0-0.3,0.4c-0.3,0.3,0.1-0.1-0.2,0.2c-0.3,0.3,0,0,0-0.1c-0.1,0.2-0.3,0.3-0.4,0.5
	c-0.2,0.2,0.2-0.3,0.3-0.3c0.1-0.1-0.4,0.4-0.5,0.6c0.1-0.1-0.1,0.1,0.2-0.2l-0.4,0.5c-0.2,0.2,0.2-0.3,0-0.1c0.3-0.3,0.8-0.9,0.8-1
	c-0.4,0.5-0.2,0.2-0.3,0.4c0.3-0.3,0.3-0.3,0.3-0.4l0.1-0.2c-0.2,0.2-0.3,0.4-0.4,0.5l-0.1,0.1l0.1-0.1c0.1-0.2,0.1-0.2,0.1-0.1
	c-0.1,0.1-0.1,0.1,0.1-0.2l0.1-0.1l0.2-0.1l-0.1,0.2c0.5-0.6,0.2-0.3,0.7-0.8l0.1-0.1c0.1-0.2,0.1-0.1,0.2-0.3
	c-0.3,0.4-0.2,0.3-0.1,0.1l0-0.1l0.2-0.3c-0.4,0.5-0.4,0.4-0.8,0.9c0,0-0.2,0.2,0,0c0.2-0.3,0,0.1,0.3-0.4c0.3-0.4-0.2,0.2,0.1-0.1
	c0.1-0.2,0.2-0.3,0.3-0.4c-0.5,0.5-0.1,0.1,0.2-0.3c-0.6,0.7-0.2,0.2-0.3,0.3c-0.3,0.3-0.2,0.2-0.4,0.4l-0.1,0.1l0,0l0,0
	c-0.2,0.2,0-0.1-0.3,0.2l0,0l0,0l0.2-0.2l0,0l0.1-0.1l0.2-0.2c0,0,0.1-0.1,0,0.1c0.1-0.1,0.2-0.3,0.3-0.4l0.2-0.3
	c-0.1,0.2-0.1,0.1,0,0c-0.1,0.1-0.2,0.2-0.3,0.3c0.1-0.2,0.2-0.2,0.2-0.2c0,0-0.1,0.1-0.3,0.3l-0.2,0.2l0,0.1l0,0
	c0.6-0.8,0.3-0.4,0.8-1c-0.1,0.1-0.1,0.1-0.1,0.1c-0.4,0.4-0.1,0.1-0.3,0.4c-0.3,0.4-0.5,0.6-0.9,1c0.4-0.5,0.4-0.5,0.7-0.8
	c0.3-0.4,0,0-0.2,0.2c-0.2,0.2-0.3,0.4-0.5,0.6c-0.1,0.1,0.2-0.3-0.1,0c-0.2,0.2,0,0,0,0c0,0,0,0.1-0.2,0.3c0.3-0.3,0.5-0.6,0.5-0.5
	c-0.2,0.2-0.1,0.1-0.1,0.1c-0.1,0.2-0.2,0.2-0.2,0.2l0,0l0.1-0.2l-0.1,0.2l0,0l-0.2,0.2c-0.3,0.4-0.4,0.4-0.3,0.4l0.1-0.2l-0.1,0.1
	l-0.2,0.2l-0.1,0.1c-0.2,0.3,0.2-0.2-0.1,0.1c-0.2,0.2-0.4,0.5-0.1,0.1c-0.2,0.3-0.5,0.6-0.5,0.6c0,0,0,0,0.1-0.2l0.2-0.2l0,0.1
	c0.3-0.4,0.4-0.5,0.6-0.7l0.2-0.2c0.2-0.2,0.3-0.3,0.4-0.6c0.2-0.1-0.1,0.2,0.4-0.4c0.3-0.4,0.3-0.4,0.6-0.7
	c-0.2,0.3-0.5,0.6-0.7,0.8c0,0,0.1-0.2,0-0.1c-0.1,0.2-0.3,0.4-0.4,0.5l-0.1,0.1c-0.2,0.2-0.3,0.3-0.4,0.4l0,0l0,0l0.2-0.3
	c0.2-0.2-0.3,0.3-0.3,0.3l0,0l0,0c0.2-0.3,0.4-0.5,0.6-0.8c-0.5,0.6,0-0.1-0.5,0.5c0.2-0.2,0.3-0.4,0.5-0.6c-0.2,0.2,0-0.1-0.3,0.4
	c-0.1,0.2-0.3,0.4-0.4,0.5c-0.2,0.2,0,0-0.3,0.3c0.3-0.3,0.8-1,0.4-0.5c0.2-0.3,0.4-0.5,0.6-0.8c-0.5,0.6-0.3,0.3-0.6,0.7
	c-0.3,0.4,0.1-0.1-0.1,0.1c-0.3,0.4-0.1,0-0.3,0.4c0.1-0.1,0.2-0.3,0.4-0.4c-0.8,0.9,0-0.1-0.3,0.3c0.5-0.6,0.4-0.4,0.7-0.8
	l-0.1,0.1c0.2-0.2,0.3-0.3,0.4-0.5c-0.2,0.2,0-0.1-0.3,0.4c-0.3,0.4,0.1-0.2,0-0.1c0.2-0.2,0.4-0.5,0.3-0.3c0.5-0.6-0.4,0.4,0.3-0.4
	l-0.4,0.5c-0.1,0.2-0.2,0.3-0.4,0.4c-0.2,0.2,0.1-0.1,0.3-0.4c-0.3,0.4-0.3,0.3-0.1,0.1c0.2-0.2,0.4-0.5,0.6-0.7l0,0.1l0.1-0.1
	l0.1-0.1l0,0l0,0l0,0c0,0,0-0.1,0.2-0.2l0.2-0.2c0,0.1,0.1-0.1,0,0l0,0l0,0l0,0l0,0c0.1-0.1,0,0,0.1-0.2c0.1-0.1,0.1,0,0.1-0.1
	l0.1-0.2c0.3-0.4,0.9-0.9,1-1.1c0.3-0.2-0.1,0.2,0.1,0c0.1-0.2,0.3-0.4,0.4-0.5c0-0.4-0.1-0.7-0.1-1.1c0-0.6,0.1-1.1,0.2-1.7
	c0.3-1.1,0.6-2.2,1.3-3.1c0.1-0.2,0.3-0.3,0.5-0.5c0.3-0.3,0.7-0.6,1-1c0.2-0.3,0.5-0.6,0.6-0.9c0.2-0.3,0.3-0.6,0.3-0.9
	c0.1-0.5,0.4-0.7,0.7-1c0.4-0.4,0.9-0.8,1.3-1.2c0.5-0.5,1-0.9,1.7-1.1c0.2-0.1,0.5-0.2,0.6-0.4c0.6-0.6,1.3-0.9,2.1-0.9
	c0.1,0,0.3-0.1,0.4-0.1c0.7-0.6,1.4-0.7,2.2-0.6c0.5,0.1,1.1,0,1.6-0.2c0.5-0.1,1-0.2,1.5-0.2c0.4-0.3,1.1-0.9,1.2-0.9
	c-0.4,0.3-0.8,0.6-1.2,0.9l0.2,0l0.3-0.3c-0.1,0.1,0.2-0.1,0.3-0.1l0,0l0.1-0.1l0.1-0.1l0,0c-0.2,0.1-0.4,0.3-0.2,0.1
	c0.2-0.1,0.4-0.2,0.5-0.3l0.1-0.1c0.3-0.2-0.2,0.2,0.1,0l0.1-0.1c0.2-0.2,0.1-0.1,0.3-0.2l0,0c0.1-0.1,0.1-0.1,0.1-0.1l0,0.1
	c-0.1,0.1-0.5,0.3-0.7,0.5l0.1-0.1c0.1-0.1,0,0,0.1-0.1c0.2-0.1,0.4-0.2,0.5-0.4c0-0.1-0.2,0.1-0.3,0.2c0.5-0.4,0.6-0.4,0.8-0.5
	c0.3-0.3,0.6-0.3,0.8-0.5l-0.2,0.3c0.3-0.2,0.5-0.4,0.8-0.6l0.1-0.2l0.2-0.1l0,0.1l-0.1,0.1l-0.1,0l0.1,0l0.1-0.1
	c0.1-0.1,0.1-0.1,0.3-0.2l0.1-0.2c-0.1,0.1-0.4,0.3-0.3,0.2c0.2-0.1,0.3-0.2,0.5-0.3l0,0c0,0-0.3,0.2-0.2,0.1l0,0l0.1-0.1l0.1-0.1
	c0.2-0.1,0.2-0.1,0.2,0c0.2-0.1,0.3-0.2,0.5-0.3c0.2-0.1,0.1,0.1,0.4-0.2l0.1-0.1l0-0.1l0-0.1l0.1-0.1c0.2-0.1-0.3,0.3,0,0.1
	c0.4-0.3,0.9-0.5,1.4-0.9c-0.1,0.2,0.4-0.2,0.5-0.3c0.2-0.1,0.1,0.1,0.3-0.1c0.2-0.2,0.5-0.5,0.7-0.6c0,0,0.1,0,0.3-0.1l0,0
	l-0.2,0.1l-0.1,0.1l0,0c0.2-0.2,0.7-0.4,0.9-0.6l0,0c-0.1,0.1-0.4,0.3-0.4,0.2c0.3-0.2,0.6-0.4,0.9-0.5c0.3-0.2,0.5-0.3,0.7-0.5
	c0.6-0.3,0.8-0.3,1.2-0.7c0.1,0,0,0.1,0.3-0.1l-0.1,0l0.4-0.3c-0.1,0.2,0.7-0.5,0.7-0.3l-0.2,0.1l-0.1,0.1c0.2-0.1,0.3-0.1,0.5-0.3
	l0,0c0.1-0.1,0.2-0.1,0.4-0.3l0,0l0,0l0,0l0,0l0.2-0.1l0,0l-0.3,0.2l-0.3,0.2l0,0.1c0.3-0.3,0.6-0.3,0.9-0.5l0.1-0.1l0.1,0
	c0.2-0.2,0.4-0.2,0.5-0.3l0,0l-0.3,0.2c0.5-0.3,0.7-0.4,1-0.6l-0.1,0.2l-0.4,0.2l-0.1,0.1c0.3-0.2,0.5-0.3,0.8-0.4l-0.1,0
	c0.3-0.2,0.4-0.2,0.6-0.4c0.2,0,0,0.1,0,0.1c0.5-0.4,1-0.5,1.5-0.8l-0.1,0.1l0,0l-0.1,0.1c0.3-0.1,0.2-0.2,0.4-0.3l-0.1,0.1l0,0
	l0.4-0.2l0,0c-0.1,0.1-0.3,0.1-0.4,0.2l0.1,0l0-0.1c0.4-0.2,0.6-0.3,0.9-0.4l0.2-0.1l0.1-0.1c0.2,0,0,0.1,0.1,0.1
	c-0.5,0.3-0.7,0.3-1,0.5c0.2,0,0.1,0,0.3,0c0.4-0.2,0.9-0.4,1.3-0.5c0.3-0.1,0.6-0.2,0.8-0.4l0.1-0.1l-0.1,0.1l0,0l0,0l0.3-0.1l0,0
	c-0.2,0.1-0.5,0.2-0.8,0.4l-0.5,0.2c0.2-0.1,0.2-0.1,0.3-0.1l0.1-0.2c0.3-0.1,0.3-0.2,0.5-0.2l0,0l-0.2,0.1l-0.2,0.1l0,0.1
	c0.3-0.2,0.5-0.3,0.6-0.4l0-0.1c0-0.1-0.3,0.1-0.2,0l0,0l0.2-0.1c0,0.1,0.5-0.1,0.2,0.1l0,0c0.1-0.1,0.4-0.2,0.6-0.3
	c0.2-0.1,0.5-0.2,0.5-0.1l0-0.1l0.1,0l0.2-0.1l-0.1,0.1l-0.1,0.1c-0.2,0-0.4,0.1-0.7,0.2l0,0l-0.1,0l0,0l0,0c0.3-0.2,0.6-0.2,1-0.4
	l-0.1,0l0.1-0.1c0.3-0.1,0.6-0.1,0.9-0.3l0,0c0,0.1-0.1,0.2,0.1,0.1l0.2-0.1l0,0.1c-0.2,0.1-0.1,0-0.3,0.1l0,0l-0.1,0l-0.1,0l0,0
	l0,0l0,0l0.3-0.1l0-0.1l0.1-0.1l0.1-0.1l0-0.1c0,0.1,0.2,0.1,0.4,0l0.1,0l0,0l-0.2,0.1l-0.2,0.1l0,0.1c-0.2,0-0.5,0.1-0.7,0.2
	c-0.2,0.1-0.5,0.2-0.7,0.2c0,0.1,0.5-0.2,0.4,0l0.1-0.1l0.2-0.1l0,0l0.1,0l0,0l0,0l-0.1,0.1c0.2-0.1,0.2-0.1,0.3-0.1l0-0.1l0,0
	l-0.1,0.1l-0.1,0.1l0,0c0.2-0.1,0.3,0,0.5-0.1l0.1-0.1c-0.2,0.1-0.2,0.1-0.3,0.1l0-0.1l0.2-0.1l-0.1,0.1l0,0
	c0.1-0.1,0.2-0.1,0.3-0.2l0.4-0.1l0,0l-0.3,0c0.2-0.1,0.3-0.1,0.4-0.2l0,0c-0.1,0.2,0.5,0.1,0.7-0.1l0,0c0.1,0-0.1,0.2,0.1,0.1
	l0.1,0l0,0l0,0l0,0l0.2-0.1l0.2,0.1c-0.2,0.1-0.5,0.2-0.7,0.3l0.3,0l-0.1,0l0,0.1c0.3-0.2,0.2,0,0.3,0l0.2-0.1l0,0l-0.2,0l0,0
	l0.3-0.1l0,0l-0.2,0l0,0c0.3-0.2,0.3,0,0.6-0.2l0,0.1l0,0l0,0l0,0c0.2,0,0.3,0.1,0.5-0.1c0.1,0.2,0.3,0,0.6,0l0,0.1l0.1-0.1
	l-0.1,0.2c0.2-0.2,0.3,0,0.5,0l-0.1,0l0,0.1l0.2,0l-0.1,0l0,0.1c0.2-0.1,0,0.1,0.1,0l0.1,0l0,0l0,0l0,0c0.1,0.1,0.4,0,0.5,0.1
	l-0.1,0.1l0,0c0.2-0.1,0.3-0.1,0.2,0.1c0.2,0,0.5,0,0.4,0.2c0.2-0.1,0.1,0.1,0.2,0.1c0.1-0.1,0.1,0,0.3-0.1l0,0.2
	c-0.1,0.1-0.2,0-0.2,0l-0.1,0.1l-0.3,0.2c0,0.1,0.1,0.1,0.3,0c0.1,0.1,0,0.3,0.3,0.2l0,0.1l0,0l0,0l0,0l0.1-0.1
	c0,0.1,0.1,0.2,0.2,0.3c0.1,0.1,0.2,0.2,0.2,0.3c0.1-0.2,0-0.2,0.1-0.3c-0.1,0.1,0-0.1-0.1-0.1l0,0.1l0,0c-0.2-0.1-0.1-0.3-0.3-0.4
	l0.1,0l0-0.1c0.1,0,0.1,0,0,0.2l0.2,0l0.1,0.2l-0.1,0l0,0.1l0.1,0.1l0.1-0.1c0.1,0.2,0.2,0.3,0.3,0.5l-0.1,0.2l0.1,0l0,0.1l0,0l0,0
	l0,0l0.1,0.1l0.1-0.1l0,0c0,0.1,0.1,0.1,0,0.2l-0.1,0l0,0.1l0.1,0.1l0.1-0.1l0.1,0c-0.2,0.3,0.1,0.2,0,0.4l0,0l-0.1,0l-0.1,0l0,0
	l0,0.3l0.1,0.3c0,0.2,0,0.4-0.2,0.8l0,0l0,0l0,0l0.1,0l0,0.1l0,0l0,0l0,0.1l0,0l0,0l0,0l0.1,0l-0.1,0.1l0,0l0,0l-0.1,0.1l0,0.3
	l0.1-0.1l0.1,0l0,0.1c-0.2,0.3,0,0.3-0.1,0.6c-0.2,0.1,0-0.2,0-0.2l0,0l0,0l0,0l0,0c0,0.2-0.1,0.4-0.2,0.7c0.1-0.2,0.2-0.4,0.2-0.5
	l0.1-0.1c-0.2,0.3,0,0.1-0.1,0.3l-0.3,0.4l0.1-0.2l0.1-0.1l0,0c-0.1,0.2,0,0.2-0.2,0.4c0.1,0,0.1,0.1-0.1,0.2l0,0
	c0.1,0.2-0.1,0.5-0.2,0.8c0,0.1,0.2,0,0.1,0.1l-0.1,0l-0.1,0.1l-0.1,0.2l0,0c0.1,0.1,0,0.2,0,0.4c-0.1,0.1-0.1,0.3,0,0.3
	c-0.1,0.2-0.1,0.2-0.1,0.3l-0.1,0c-0.1,0.1-0.1,0.2-0.2,0.4c-0.1,0.2-0.2,0.5-0.2,0.6c-0.2,0.2,0-0.2,0-0.2
	c-0.1,0.2-0.3,0.3-0.3,0.4c0.2-0.2,0,0,0,0.1c0.1-0.1,0.1-0.1,0.2,0l-0.1,0.1l-0.1,0l-0.1,0l0,0c-0.1,0.1-0.2,0.3-0.3,0.4l-0.1,0.1
	l0.2,0l0,0c-0.2,0.2-0.3,0.4-0.5,0.6l0.1-0.1l0.2-0.2l0.2-0.2l0.1-0.1c-0.1,0.3-0.5,0.5-0.5,0.8c0.3-0.5,0.4-0.5,0.7-1
	c-0.1,0.2-0.3,0.5-0.4,0.6l0,0l0.1-0.1c-0.3,0.3-0.4,0.5-0.5,0.6l-0.1,0l-0.1,0.1l-0.2,0.3l0.1-0.1l0.1-0.1l0,0
	c-0.2,0.2-0.3,0.4-0.2,0.4c-0.3,0.3-0.5,0.7-0.3,0.6l-0.2,0.2c0.1,0-0.1,0.2-0.1,0.3l0,0l-0.1,0.1l-0.1,0.1l-0.1,0.2
	c0,0.2-0.1,0.3-0.3,0.6c0-0.1,0.3-0.4,0.1-0.3c-0.1,0.2-0.2,0.3-0.3,0.3c-0.1,0.3-0.2,0.4-0.2,0.5c-0.5,0.5-0.4,0.8-1,1.4l-0.1,0.2
	l-0.1,0.1l-0.1,0.1l-0.1,0.1l-0.1,0.1c-0.1,0.1,0.2-0.2,0.1,0c-0.2,0.3-0.5,0.6-0.5,0.7l-0.1,0.1l0,0l0,0l0,0
	c-0.2,0.3-0.5,0.6-0.5,0.7c-0.2,0.2-0.4,0.4-0.5,0.6c-0.1,0.1-0.1,0.1-0.3,0.2l-0.1,0.1c0,0.1-0.3,0.3-0.4,0.5l0.1,0.1
	c-0.2,0.2,0-0.2-0.3,0.1l-0.2,0.2l0.1,0l0,0l-0.1,0.1l-0.1,0l-0.1,0.1c-0.1,0.1,0.1,0,0.2,0l-0.1,0.1l0,0.1l-0.1,0.1l0,0l-0.1,0.1
	l-0.1,0.1l0,0c-0.1,0.2-0.5,0.5-0.3,0.5l-0.3,0.2l0-0.1c-0.1,0.2-0.5,0.5-0.5,0.6l0,0l0,0l0.2-0.3l0.2-0.1c-0.1,0.1-0.2,0.3-0.3,0.4
	c-0.1,0.2-0.3,0.3-0.3,0.5l-0.1,0.1l-0.2,0.3l-0.2,0.2l-0.1,0.1c-0.2,0.3-0.4,0.5-0.5,0.6l-0.1,0l-0.2,0.2l-0.2,0.2l-0.1,0.1
	c0.1-0.2,0.3-0.3,0.4-0.5c-0.5,0.4,0.3-0.3,0.1-0.2c-0.2,0.2-0.3,0.3-0.4,0.4l0,0c-0.1,0.2-0.5,0.6-0.7,0.9
	c-0.1,0.1,0.1-0.2-0.1-0.1c0-0.1,0.4-0.4,0.3-0.4c-0.2,0.2-0.4,0.5-0.6,0.7l-0.2,0.2c-0.1,0.2-0.3,0.4-0.5,0.5l-0.2,0.2
	c-0.3,0.3-0.2,0.4-0.5,0.7l-0.1,0.1c0.2-0.2,0.1-0.2,0.1-0.3c-0.4,0.5-1.2,1.2-1.2,1.3l0.1-0.1l0,0l0,0l0.1-0.1l-0.2,0.3
	c-0.1,0-0.2,0.1-0.3,0.2l-0.3,0.3c0,0.1-0.3,0.4-0.5,0.6c-0.2,0.2-0.2,0.2-0.4,0.3l0,0c-0.2,0.3,0.7-0.5,0.2,0c0,0-0.2,0.1-0.5,0.3
	c-0.2,0.1-0.3,0.3-0.5,0.4l-0.2,0.2l0.1,0c-0.2,0.2-0.1,0-0.3,0.2c-0.3,0.3-0.3,0.3-0.4,0.4l-0.2,0.2l0,0.1c-0.2,0.2-0.1,0-0.3,0.2
	c-0.1,0.1-0.3,0.3-0.4,0.4c-0.1,0.1-0.2,0.2-0.4,0.3c-0.2,0.2,0.2-0.1-0.1,0.2l-0.1,0.1l-0.1,0.1l-0.1,0.1l0,0l-0.1,0.1
	c0.1-0.1,0.2-0.2,0.1-0.1c-0.5,0.5-0.9,0.9-1.3,1.2c-0.4,0.4-0.9,0.8-1.4,1.2l0,0l-0.2,0.2l0,0l0,0l-0.1,0.1l-0.1,0l0,0l-0.3,0.3
	l-0.3,0.3l-0.2,0.2c-0.1,0.1-0.1,0-0.2,0.1l-0.2,0.2c-0.1,0.1-0.3,0.2-0.4,0.3c-0.1,0.1-0.3,0.2-0.4,0.3l0,0l0.1,0
	c0.2-0.2,0.3-0.3,0.5-0.4l-0.3,0.3c-0.1,0.1-0.3,0.3-0.3,0.4c-0.3,0.2,0.3-0.3,0.1-0.2c-0.2,0.2-0.4,0.4-0.7,0.6
	c-0.2,0.2-0.5,0.5-0.8,0.7c-0.3,0.2-0.5,0.5-0.8,0.7c-0.3,0.2-0.5,0.4-0.7,0.5l-0.1,0.1c-0.1,0.1-0.2,0.1-0.3,0.3l0.1-0.2l0.2-0.2
	l0.2-0.2l0-0.1c-0.4,0.3-0.8,0.6-1.2,1c-0.2,0.1-0.4,0.3-0.6,0.5c-0.1,0.1-0.1,0.1-0.1,0l0.2-0.1l0.1-0.1l0.2-0.1l0.2-0.2l0,0
	l0.1-0.1l-0.2,0.1c-0.3,0.2-0.6,0.5-0.8,0.7l-0.1,0.1l-0.1,0c-0.4,0.4-0.8,0.7-1.2,1c-0.4,0.3-0.8,0.7-1.2,1.1l0,0
	c-0.2,0.1-0.1,0,0-0.1c0.1-0.1,0,0,0.2-0.1l0.1-0.1l0,0c-0.2,0.1-0.4,0.2-0.6,0.4l-0.1,0.1c-0.2,0.1-0.3,0.1-0.4,0.3l-0.1,0.1l0,0
	c0.3-0.2,0.3-0.2,0.3-0.2c0.2-0.2,0.4-0.3,0.5-0.4c-0.2,0.2,0.4-0.2,0.2,0c-0.3,0.2-0.1,0.1-0.3,0.2c-0.6,0.4-0.8,0.7-1.2,1
	c0.2-0.2,0.6-0.6,0.4-0.5c-0.3,0.2-0.7,0.6-1,0.8c-0.2,0.1-0.5,0.3-0.7,0.4l-0.1,0.1c-0.2,0.2-0.7,0.5-0.7,0.5l0.3-0.2l0,0
	c-0.2,0.2-0.3,0.3-0.5,0.4c0.1,0-0.1,0.1,0,0.1c-0.5,0.4-0.3,0.2-0.9,0.7c-0.4,0.1-0.8,0.6-1.2,0.7c-0.2,0.2-0.3,0.2-0.5,0.4
	c0.1-0.2,0.3-0.3,0.5-0.6c-0.7,0.5-1.5,0.9-2,1.4l0,0c-0.5,0.3-1.4,0.8-1.9,1.3c0.5-0.1,1.7-1.1,2.1-1.3l0-0.1l0.3-0.2l0,0.1
	c0.4-0.3,0.7-0.6,1.2-0.9c-0.3,0.3-1,0.9-1.5,1.2l0,0l0.1-0.1l0.1-0.1l0,0c-0.4,0.3-0.8,0.6-1.2,0.9c-0.3,0.1-0.6,0.3-1,0.5
	c-0.4,0.3-0.6,0.4-0.8,0.6L-242,340.4z M-222.3,320.8l0.2-0.2l0.2-0.1l-0.2,0.2L-222.3,320.8z M-221.9,320.4l0.2-0.1l0.3-0.3
	l0.3-0.3l0.1-0.1c-0.2,0.2-0.4,0.5-0.6,0.6L-221.9,320.4z M-220,318.5L-220,318.5L-220,318.5l0.1-0.2l0.1-0.1
	c0.1-0.1,0.2-0.2,0.2-0.3l0.2-0.2c0.1-0.1,0.3-0.3,0.4-0.4C-219.2,317.8-219.6,318.2-220,318.5L-220,318.5z M-246,324.6l0.1-0.2l0,0
	l0,0l0,0L-246,324.6z M-247.2,325c0.2-0.3,0.6-0.8,0.6-0.8C-246.8,324.6-247,324.8-247.2,325z M-247.6,325.2
	c0.1-0.2,0.3-0.3,0.4-0.5c0.2-0.2,0.1-0.1,0.1,0C-247.3,324.9-247.3,324.8-247.6,325.2z M-247.9,323c-0.2,0.2,0,0-0.3,0.4
	C-248.4,323.6-248.2,323.3-247.9,323C-248.1,323.2-247.8,322.9-247.9,323z M-248.1,323.8c-0.2,0.2-0.1,0.1,0.1-0.2
	C-248,323.7-247.7,323.4-248.1,323.8z M-247.1,320.5l0.3-0.4c-0.1,0.2-0.3,0.4-0.4,0.5L-247.1,320.5L-247.1,320.5z M-210.9,314.7
	L-210.9,314.7l-0.2,0.2l-0.1,0.2l0,0c0,0,0-0.1,0.1-0.2L-210.9,314.7z M-211.6,315.1C-211.4,315-211.3,315-211.6,315.1
	C-211.7,315.4-211.5,315.1-211.6,315.1z M-214.3,328c-0.3,0.3-0.5,0.7-0.7,1c-0.1,0.1-0.2,0.3-0.3,0.4c-0.3,0.3-0.5,0.5-0.6,0.9
	c-0.1,0.5-0.7,0.9-1.1,0.9c-0.5,0-0.8,0.3-0.9,0.8c0,0.2-0.1,0.4-0.3,0.5c-0.6,0.4-1.1,0.8-1.9,0.9c-0.4,0-0.9,0.4-1.3,0.6
	c-0.2,0.1-0.5,0.3-0.7,0.3c-0.4,0-0.7,0.2-0.9,0.5c-0.2,0.3-0.4,0.4-0.8,0.5c-0.6,0.1-1.3,0.3-1.9,0.4c-0.9,0.2-1.8,0.3-2.7-0.1
	c-0.3-0.2-0.7-0.1-1.1-0.1c-0.6-0.1-1.2-0.2-1.9-0.2l0,0l0.3-0.1l0.3-0.2l0.2-0.2l0.1-0.1l0,0l0.2-0.3c0.2-0.2,0.2-0.5,0.3-0.7l0,0
	l0.1-0.1c0.2-0.1,0.4-0.3,0.6-0.5c0.2,0,0.3-0.1,0.5-0.2l0.2-0.1l0.2-0.1l0.1-0.1l0.2-0.3c0.3-0.3,0.6-0.5,0.9-0.8
	c0.2-0.2,0.5-0.4,0.7-0.6l0.1-0.1l0,0c0.2,0,0.4-0.1,0.6-0.3l0.2-0.2l0.2-0.2l0.1-0.1l0,0c0.2-0.1,0.4-0.3,0.6-0.5
	c0.3-0.2,0.5-0.5,0.8-0.7c0.3-0.2,0.5-0.5,0.8-0.7l0.2-0.1c0.1-0.1,0.2-0.1,0.3-0.2c0.1-0.1,0.2-0.2,0.3-0.3l0.2-0.1l0.3-0.3
	l0.2-0.2l0.1-0.1l0.1-0.1l0.1-0.1l0.2-0.2l0.1-0.1l0.3-0.2l0.1-0.1l0.3-0.2l0.1-0.1l0.1-0.1l0.1-0.1l0.3-0.3c0.4-0.4,0.8-0.7,1.2-1
	c0.3-0.3,0.6-0.6,1-0.9l0.3-0.2l0.1-0.1l0.2-0.2l0.1-0.1l0.1-0.1l0.1-0.1l0.2-0.3l0.1-0.1l0.3-0.3l0.3-0.2c0.1-0.1,0.2-0.2,0.3-0.3
	l0.2-0.2l0.1-0.1l0.3-0.2c0.1-0.1,0.2-0.2,0.3-0.4l0.3-0.2l0.2-0.2c0.2-0.1,0.3-0.2,0.4-0.3c0.1-0.1,0.2-0.2,0.3-0.4l0.1-0.1
	c0.1-0.1,0.3-0.3,0.4-0.5l0.2-0.2l0,0c0.2-0.1,0.3-0.2,0.4-0.4l0.2-0.3l0.1-0.1c0,0.3,0.1,0.6,0.1,0.9c-0.1,0.4-0.3,0.9-0.4,1.4
	c-0.1,0.4-0.2,0.8-0.2,1.2c-0.1,1.3-0.4,2.5-0.8,3.8c0,0.1-0.1,0.3-0.1,0.4C-213.1,326.3-213.7,327.2-214.3,328z M-231.9,334.1
	c0.4-0.4,0.8-0.6,1.2-0.9C-231.1,333.5-231.5,333.9-231.9,334.1z M-230.2,332.3L-230.2,332.3c-0.2,0.2-0.5,0.4-0.4,0.3l0.1-0.1
	l0-0.1l0-0.1L-230.2,332.3L-230.2,332.3L-230.2,332.3z M-229.3,331.5c-0.1,0.1-0.2,0.2-0.3,0.2l-0.1,0.1c-0.1,0,0-0.1,0.2-0.2
	c0.2-0.1,0.3-0.2,0.6-0.4C-229.1,331.3-229.2,331.4-229.3,331.5z M-228.3,330.8L-228.3,330.8c-0.3,0.3-0.7,0.6-0.7,0.5
	C-228.8,331.1-228.6,331-228.3,330.8z M-229.5,332.4L-229.5,332.4l-0.1,0.1l-0.1,0.1l0,0l-0.3,0.2
	C-229.9,332.6-229.5,332.2-229.5,332.4z M-227.5,330.4l-0.1,0.1l-0.2,0.1l0.1-0.1l0.1-0.1l0-0.1L-227.5,330.4
	C-227.3,330.1-227.8,330.6-227.5,330.4z M-227.6,330.3L-227.6,330.3l0.2-0.2l0.2-0.2l0-0.1c0.5-0.4,1-0.9,1.6-1.2
	C-226.4,329.3-226.9,329.7-227.6,330.3z M-227.6,330.2c-0.2,0.2-0.4,0.3-0.5,0.4c0.2-0.2,0.5-0.4,0.7-0.5L-227.6,330.2z
	 M-224.9,328.2l0.2-0.2l0.1-0.1l-0.1,0.2L-224.9,328.2z M-224.1,327.4l0.2-0.3l0.2-0.1l-0.1,0.1l-0.1,0.1L-224.1,327.4z
	 M-232.3,333.9L-232.3,333.9L-232.3,333.9l-0.4,0.4l0.1-0.1l0.1-0.1l0.1-0.1l-0.1,0c-0.3,0.3-0.6,0.4-0.9,0.7l0,0
	C-233.1,334.4-232.5,334-232.3,333.9L-232.3,333.9l0.1-0.1l0,0l0,0L-232.3,333.9L-232.3,333.9z M-234.5,335.4
	c0.1-0.1,0.2-0.2,0.3-0.2l0-0.1c0.3-0.2,0.2-0.1,0.4-0.2C-234,335.1-234.3,335.3-234.5,335.4z M-234.3,335.3
	c-0.4,0.3-0.5,0.4-0.9,0.6C-234.8,335.7-234.5,335.5-234.3,335.3z M-236.9,337.2c0.4-0.3,0.9-0.7,1.3-0.9
	C-236.1,336.6-236.6,337-236.9,337.2z M-236.7,337.2c-0.2,0.1-0.4,0.3-0.6,0.4C-237.2,337.5-236.6,337.1-236.7,337.2z M-236.9,337.1
	L-236.9,337.1L-236.9,337.1c0.3-0.2,1.3-1,1.2-0.8C-236,336.4-236.5,336.9-236.9,337.1L-236.9,337.1L-236.9,337.1z M-240.9,339.7
	L-240.9,339.7c0.2-0.2,0.4-0.3,0.6-0.4l0.1,0l0,0l-0.2,0.1l-0.1,0.1l-0.1,0.1l-0.1,0.1L-240.9,339.7L-240.9,339.7z M-241.1,339.8
	L-241.1,339.8l0.4-0.3l-0.1,0.1l0,0l0,0L-241.1,339.8z M-241.6,340.2L-241.6,340.2c0.1-0.1,0.5-0.4,0.4-0.2
	c-0.2,0.1-0.4,0.3-0.6,0.4C-241.7,340.2-241.7,340.2-241.6,340.2z M-239.6,399c0,0.1-0.1,0.2-0.1,0.4c-0.5-0.5-1.1-0.9-1.8-1.2
	c0.2-0.3,0.3-0.5,0.4-0.8l0.2,0c0.4,0.5,0.9,0.9,1.5,1.1C-239.5,398.6-239.6,398.7-239.6,399z M-239.5,338.9L-239.5,338.9
	c-0.1,0.1-0.3,0.3-0.5,0.4c-0.2,0.2-0.4,0.3-0.4,0.2c0.3-0.2,1.1-0.8,1.4-1.1l0.1-0.1l0.4-0.2c0.3-0.3,0.6-0.5,0.9-0.6
	c-0.7,0.6-1.2,1-1.7,1.3C-239.1,338.7-239.5,339-239.5,338.9z M-236.9,337.3c-0.4,0.3-0.6,0.4-1,0.7
	C-237.5,337.6-237.2,337.5-236.9,337.3z M-215.6,408l-0.2-0.2l0.2-0.1L-215.6,408L-215.6,408z M-215.5,401.9c-1-0.1-1.9,0.6-2.1,1.6
	c0,0.1,0,0.3,0,0.4c-0.4,0.3-0.7,0.8-0.9,1.4c-0.1,0.5,0,0.9,0.2,1.3c-0.9-0.1-1.9,0-2.7,0.4c-0.5-1-1.5-1.8-2.6-2
	c-1.7-0.4-3.3,0.5-4.1,2c-0.4-0.3-0.8-0.5-1.3-0.7c-2.3-0.8-4.7-0.3-6.5,1.2c-0.3-0.2-0.6-0.4-0.9-0.6c-0.1-0.7-0.4-1.3-0.8-1.8
	c0.1-1.2-0.2-2.4-0.7-3.4c0.6,0.1,1.2,0,1.7-0.4c0.1,0.1,0.3,0.2,0.4,0.2c0.7,0.2,1.5-0.3,1.7-1.1c0.2-0.8-0.2-1.5-0.9-1.7
	c-0.2,0-0.3,0-0.5,0c-0.2-0.5-0.6-0.9-1.1-1.1c0.2-0.2,0.3-0.4,0.5-0.7c0.5,1,1.3,1.7,2.4,2c1.6,0.4,3.3-0.4,4.2-1.8
	c0.3,0.5,0.6,0.9,0.9,1.3c-0.2,0.3-0.4,0.7-0.4,1.1c-0.5,2.1,0.8,4.1,2.8,4.6c2,0.5,4-0.9,4.4-3c0.1-0.3,0.1-0.6,0.1-0.9
	c2.1-0.7,3.9-2.4,4.6-4.8c0.2,0,0.5,0,0.7-0.1c-0.3,0.5-0.5,1-0.7,1.6c-0.4,2.1,0.9,4.1,2.9,4.4c0.5,0.1,1,0,1.4-0.1
	c0,0.2-0.1,0.4-0.1,0.5c-0.1,0.5-0.1,1,0,1.5c-0.4,0.1-0.7,0.3-1.1,0.6C-213.9,402.9-214.5,402-215.5,401.9z M-212.6,412.9
	c-0.3-0.3-0.6-0.5-1-0.6c0.2-0.3,0.4-0.7,0.5-1.2l0-0.1c0.2,0.1,0.5,0.2,0.7,0.2L-212.6,412.9z M-203.9,409.6L-203.9,409.6l0.1,0.1
	L-203.9,409.6z M-187.6,376.7c-0.9,1.2-1.9,2.2-3.2,3.1c-1.3,0.9-2.7,1.7-4.4,2.2c-1.7,0.5-3.6,0.9-5.9,0.9c-2.8,0-5.3-0.5-7.5-1.5
	c-2.2-1-4-2.3-5.4-4.1c-1.4-1.7-2.6-3.7-3.3-6.2c-0.8-2.3-1.2-5-1.2-7.7c0-3.1,0.4-5.8,1.3-8.1c0.9-2.4,2.1-4.5,3.6-6.2
	c1.5-1.7,3.3-3,5.4-3.9c2.1-0.9,4.5-1.3,7-1.3c2.3,0,4.2,0.3,5.9,0.8c1.7,0.5,3.1,1.2,4.4,2.2c1.2,0.9,2.2,2.2,3.1,3.5
	c0.8,1.4,1.5,3,2.2,4.8l-9.3,3.6c-0.4-0.9-0.6-1.7-1-2.3c-0.4-0.8-0.8-1.3-1.3-1.8c-0.5-0.5-1-0.9-1.7-1.2c-0.6-0.3-1.4-0.4-2.2-0.4
	c-1,0-2.1,0.3-2.8,0.8c-0.8,0.5-1.4,1.3-1.9,2.2c-0.5,0.9-0.9,2.1-1.2,3.2c-0.3,1.3-0.4,2.7-0.4,4.1s0.1,2.8,0.4,4.1
	c0.3,1.3,0.6,2.3,1.2,3.3c0.5,0.9,1.2,1.7,1.9,2.2c0.8,0.5,1.8,0.8,3,0.8c0.8,0,1.5-0.1,2.2-0.4c0.6-0.3,1.2-0.5,1.7-1
	c0.5-0.4,1-1,1.4-1.7c0.5-0.6,0.9-1.4,1.4-2.3l8.9,4.8C-185.9,374.3-186.7,375.6-187.6,376.7z M-165.6,419.6c0-1-0.8-1.8-1.7-1.9
	c-0.9-0.1-1.7,0.5-2,1.3l-0.3,0c-0.5-1-1.3-1.8-2.4-2.3c0.5-0.5,0.8-1.2,1.1-1.9c1.5,1.3,3.4,2.2,5.5,2.4l0.2,0
	c0.2,0.3,0.3,0.6,0.6,0.9c0,0.3,0,0.6,0.1,0.9C-165,419.1-165.3,419.3-165.6,419.6z M-153.7,411.3c-0.6-0.3-1.3-0.6-2.1-0.8
	c0.1-0.4,0.2-0.7,0.3-1.1c0.5,0.5,1.1,0.8,1.9,0.9c-0.1,0.2-0.1,0.4-0.1,0.6C-153.7,411.1-153.7,411.2-153.7,411.3z M-155.6,405
	c0.2,0.1,0.4,0.2,0.6,0.3c-0.2,0.1-0.3,0.2-0.5,0.3C-155.5,405.4-155.5,405.2-155.6,405z M-151.8,405.4c-0.4-0.3-0.9-0.5-1.4-0.6
	c0.2-0.2,0.4-0.5,0.5-0.8c0.2,0.3,0.6,0.6,0.9,0.8c0,0.1-0.1,0.3-0.1,0.4L-151.8,405.4z M-151.5,371.7c-0.9,2.4-2.1,4.5-3.6,6.2
	c-1.5,1.7-3.3,3-5.5,3.7c-2.2,0.9-4.5,1.3-7.1,1.3s-4.9-0.4-7.1-1.3c-2.2-0.9-4-2.1-5.5-3.7c-1.5-1.7-2.7-3.7-3.6-6.1
	c-0.9-2.4-1.3-5.3-1.3-8.4c0-3.1,0.4-5.9,1.3-8.4c0.9-2.4,2.1-4.5,3.6-6.2c1.5-1.7,3.3-3,5.5-3.7c2.2-0.9,4.5-1.3,7.1-1.3
	s4.9,0.4,7.1,1.3c2.2,0.9,4,2.1,5.5,3.7c1.5,1.7,2.7,3.7,3.6,6.1c0.9,2.4,1.3,5.2,1.3,8.4C-150.3,366.4-150.6,369.2-151.5,371.7z
	 M-147.9,321.2c-0.4,0.8-0.8,1.8-1.2,2.6c-0.4,0.8-0.8,1.8-1.2,2.6c-0.4,0.9-0.8,1.7-1,2.3l-5,10.4l-4.8-10.4
	c-0.4-0.6-0.6-1.4-1-2.3c-0.4-0.9-0.8-1.7-1.2-2.6c-0.4-0.9-0.8-1.8-1.2-2.6c-0.4-0.8-0.6-1.7-1-2.3c0.1,1.4,0.1,3.1,0.1,4.8
	c0,1.7,0,3.5,0,5.3v9h-9.9v-37.9h9.7l4.6,10.2c0.5,1.3,1,2.4,1.5,3.6c0.5,1.2,1,2.2,1.4,3.2c0.4,1,0.8,1.9,1,2.7
	c0.3,0.8,0.5,1.4,0.6,2.1c0.4-1,0.9-2.6,1.7-4.5c0.8-1.9,1.8-4.2,3.1-6.8l4.6-10.2h9.5v37.9h-9.7v-0.3v-9c0-1.9,0-3.6,0-5.3
	c0-1.7,0.1-3.2,0.1-4.8C-147.2,319.7-147.6,320.4-147.9,321.2z M-109.1,382.5h-9.8v-0.3v-9c0-1.9,0-3.6,0-5.3c0-1.7,0.1-3.2,0.1-4.8
	c-0.3,0.8-0.6,1.5-1,2.3c-0.4,0.9-0.8,1.8-1.2,2.6c-0.4,0.9-0.8,1.8-1.2,2.6c-0.4,0.9-0.8,1.7-1,2.3l-5,10.4l-5-10.4
	c-0.4-0.6-0.6-1.4-1-2.3c-0.4-0.9-0.8-1.7-1.2-2.6c-0.4-0.9-0.8-1.8-1.2-2.6s-0.6-1.7-1-2.3c0.1,1.4,0.1,3.1,0.1,4.8
	c0,1.7,0,3.5,0,5.3v9h-9.5v-37.9h9.7l4.6,10.2c0.5,1.3,1,2.4,1.5,3.6c0.5,1.2,1,2.2,1.4,3.2c0.4,1,0.8,1.9,1,2.7
	c0.3,0.8,0.5,1.4,0.6,2.1c0.4-1,0.9-2.6,1.7-4.5c0.8-1.9,1.8-4.2,3.1-6.8l4.6-10.2h9.5V382.5z M-108,337c-2.2-1-4-2.3-5.4-4.1
	c-1.4-1.7-2.6-3.7-3.3-6.2c-0.8-2.3-1.2-5-1.2-7.7c0-3.1,0.4-5.8,1.3-8.1c0.9-2.4,2.1-4.5,3.6-6.2c1.5-1.7,3.3-3,5.4-3.9
	c2.1-0.9,4.5-1.3,7-1.3c2.3,0,4.2,0.3,5.9,0.8c1.7,0.5,3.1,1.2,4.4,2.2c1.2,0.9,2.2,2.2,3.1,3.5c0.8,1.4,1.5,3,2.2,4.8l-9.5,3.7
	c-0.4-0.9-0.6-1.7-1-2.3c-0.4-0.8-0.8-1.3-1.3-1.8c-0.5-0.5-1-0.9-1.7-1.2c-0.6-0.3-1.3-0.4-2.2-0.4c-1,0-2.1,0.3-2.8,0.8
	c-0.8,0.5-1.4,1.3-1.9,2.2c-0.5,0.9-0.9,2.1-1.2,3.2c-0.3,1.3-0.4,2.7-0.4,4.1s0.1,2.8,0.4,4c0.3,1.3,0.6,2.3,1.2,3.3
	c0.5,0.9,1.2,1.7,1.9,2.2c0.8,0.5,1.8,0.8,3,0.8c0.8,0,1.5-0.1,2.2-0.4c0.6-0.3,1.2-0.5,1.7-1c0.5-0.4,1-1,1.4-1.7
	c0.5-0.6,0.9-1.4,1.4-2.3l8.9,4.8c-0.3,1.2-1,2.3-1.9,3.6c-0.9,1.2-1.9,2.2-3.2,3.1c-1.3,0.9-2.7,1.7-4.4,2.2
	c-1.7,0.5-3.6,0.9-5.9,0.9C-103.4,338.6-105.8,338.1-108,337z M-103.8,382.2v-37.9h10.7v37.9H-103.8z M-93.1,419.6
	c-0.1-0.2-0.2-0.3-0.3-0.5c0.2,0.1,0.5,0.1,0.7,0.1C-92.8,419.3-93,419.5-93.1,419.6z M-91.9,415.6l0.3-0.1l0,0.3L-91.9,415.6z
	 M-91,418.2c0.2-0.3,0.2-0.6,0.2-0.9c0.3,0.2,0.7,0.4,1.2,0.4c0,0.1,0,0.3,0.1,0.4l0.1,0.2C-90,418.2-90.5,418.1-91,418.2z
	 M-85,412.8L-85,412.8c-0.5,0-1.1,0.1-1.7,0.2c-0.6,0.2-1,0.4-1.5,0.7c-0.5-0.4-1.2-0.6-1.9-0.4c-0.2,0.1-0.4,0.2-0.6,0.3
	c0-0.2,0-0.5,0-0.7c-0.3-1.2-1.5-1.9-2.7-1.6c-0.2,0.1-0.4,0.1-0.6,0.3c0.6-0.9,0.8-2,0.5-3.1c-0.5-2-2.5-3.3-4.5-2.8
	c0-0.3,0-0.6,0-0.9l-0.1-0.3l0.8-0.4c0.8,0.5,1.8,0.7,2.8,0.4c0.4-0.1,0.8-0.3,1.1-0.6c0.8,1,1.9,1.8,3.2,1.9
	c0.7,0.9,1.9,1.5,3.1,1.3c0.5,0.3,1.1,0.5,1.7,0.3c0.7-0.2,1.1-0.8,1.3-1.4l0.1,0.1C-85.2,408.2-85.7,410.5-85,412.8z M-58.8,376.7
	c-0.9,1.2-1.9,2.2-3.2,3.1c-1.3,0.9-2.7,1.7-4.4,2.2c-1.7,0.5-3.6,0.9-5.9,0.9c-2.8,0-5.3-0.5-7.5-1.5c-2.2-1-4-2.3-5.4-4.1
	c-1.4-1.7-2.6-3.7-3.3-6.2c-0.8-2.3-1.2-5-1.2-7.7c0-3.1,0.4-5.8,1.3-8.1c0.9-2.4,2.1-4.5,3.6-6.2c1.5-1.7,3.3-3,5.4-3.9
	c2.1-0.9,4.5-1.3,7-1.3c2.3,0,4.2,0.3,5.9,0.8c1.7,0.5,3.1,1.2,4.4,2.2c1.2,0.9,2.2,2.2,3.1,3.5c0.8,1.4,1.5,3,2.2,4.8l-9.5,3.7
	c-0.4-0.9-0.6-1.7-1-2.3c-0.4-0.8-0.8-1.3-1.3-1.8c-0.5-0.5-1-0.9-1.7-1.2c-0.6-0.3-1.3-0.4-2.2-0.4c-1,0-2.1,0.3-2.8,0.8
	c-0.8,0.5-1.4,1.3-1.9,2.2c-0.5,0.9-0.9,2.1-1.2,3.2c-0.3,1.3-0.4,2.7-0.4,4.1c0,1.4,0.1,2.8,0.4,4.1c0.3,1.3,0.6,2.3,1.2,3.3
	c0.5,0.9,1.2,1.7,1.9,2.2c0.8,0.5,1.8,0.8,3,0.8c0.8,0,1.5-0.1,2.2-0.4c0.6-0.3,1.2-0.5,1.7-1c0.5-0.4,1-1,1.4-1.7
	c0.5-0.6,0.9-1.4,1.4-2.3l8.9,4.8C-57.2,374.3-57.9,375.6-58.8,376.7z M-37.3,289.8c0.2,0.2,0.3,0.3,0.5,0.5
	c0.4,0.4,0.9,0.7,1.4,0.9c-0.5,0.7-0.5,1.6-0.1,2.4c0.2,0.3,0.4,0.6,0.7,0.8c-0.4,0.2-0.9,0.4-1.3,0.6l-0.7-4.7l-0.6-0.2
	L-37.3,289.8z M-25.5,376.2c-0.8,1.5-1.8,2.8-3.2,3.7c-1.4,1-3.1,1.7-4.9,2.2c-1.9,0.5-4,0.6-6.3,0.6c-3.1,0-6.1-0.4-8.8-1.3
	c-2.7-0.9-5.2-1.9-7.2-3.2l5-8.2c0.6,0.5,1.5,0.9,2.4,1.4c0.9,0.5,1.9,0.9,2.8,1.2c1,0.4,1.9,0.6,3,0.9c1,0.3,1.9,0.4,2.8,0.4
	c1.9,0,3.2-0.1,3.9-0.5c0.6-0.4,1-1,1-1.9c0-0.4-0.1-0.6-0.3-1c-0.3-0.3-0.5-0.5-1-0.9c-0.5-0.3-1.2-0.5-1.9-0.8
	c-0.8-0.3-1.9-0.5-3.1-0.9c-2.3-0.5-4.2-1.2-5.9-1.7c-1.7-0.6-3.1-1.4-4.2-2.3c-1.2-0.9-1.9-2.1-2.6-3.3c-0.5-1.3-0.9-3-0.9-4.8
	c0-1.8,0.4-3.3,1-4.9c0.6-1.4,1.7-2.7,3-3.7c1.3-1,2.8-1.8,4.8-2.4c1.8-0.5,3.9-0.9,6.2-0.9c3.2,0,6.1,0.4,8.5,1.2
	c2.4,0.8,4.6,1.8,6.6,3.2l-5,8.2c-1.7-1.2-3.3-2.1-5-2.7s-3.5-0.9-5.4-0.9c-1.5,0-2.6,0.3-3.1,0.6c-0.5,0.4-0.8,1-0.8,1.7
	c0,0.4,0.1,0.6,0.3,0.9c0.3,0.3,0.5,0.5,1,0.8c0.5,0.3,1.2,0.5,1.9,0.6c0.8,0.3,1.8,0.5,3.1,0.8c2.3,0.5,4.4,1.2,6.2,1.9
	c1.7,0.6,3.2,1.5,4.2,2.4c1.2,0.9,1.9,2.1,2.4,3.3c0.5,1.3,0.6,3,0.6,4.8C-24.3,372.8-24.7,374.7-25.5,376.2z M-19.6,375.2l-0.3,0.3
	l-0.3-0.3c0.4-0.2,0.8-0.4,1.1-0.7l0.2,0.3C-19.1,374.9-19.4,375-19.6,375.2z M-15.9,368.7c-0.3,0-0.6,0-0.9,0.1
	c0-0.3-0.1-0.5-0.2-0.7l0,0C-16.6,368.2-16.3,368.5-15.9,368.7L-15.9,368.7z"/>
<path d="M-59.7,244c0.7-0.7,0.7-1.9,0-2.6c-0.7-0.8-1.9-0.8-2.6-0.1c-0.7,0.7-0.7,1.9,0,2.6C-61.6,244.6-60.4,244.6-59.7,244z"/>
<ellipse transform="matrix(0.7174 0.6966 -0.6966 0.7174 148.8601 120.6656)" cx="-74.3" cy="243.8" rx="0.7" ry="0.7"/>
<path d="M-73.1,249.4c0.6-0.6,0.6-1.6,0-2.2c-0.6-0.6-1.6-0.6-2.2,0c-0.6,0.6-0.6,1.6,0,2.2C-74.7,250-73.7,250-73.1,249.4z"/>
<path d="M-44.2,259.4L-44.2,259.4L-44.2,259.4l-0.1,0.2c-0.1,0.2-0.2,0.4-0.2,0.7c0,0.5,0.1,1,0.4,1.4c0.6,0.8,1.8,1,2.6,0.4
	c0.8-0.6,0.9-1.8,0.2-2.6c-0.3-0.4-0.8-0.7-1.2-0.8c-0.2,0-0.5,0-0.7,0l-0.2,0l-0.1,0l0,0l0,0l0,0l-0.2-0.2l0,0l0,0l0,0l0,0
	l-0.3,0.2l-0.3,0.3l0,0l0,0l0,0l0,0L-44.2,259.4L-44.2,259.4L-44.2,259.4z"/>
<path d="M-43.7,271.8c0.9-0.7,1.1-2,0.4-3c-0.7-1-2.1-1.2-3-0.5c-0.9,0.7-1.1,2-0.4,3C-45.9,272.3-44.6,272.5-43.7,271.8z"/>
<path d="M-71.2,255c1,1.1,2.8,1.2,3.9,0.2c1.1-1,1.2-2.8,0.1-4c0.2-0.1,0.4-0.2,0.5-0.3c0.9-0.8,0.9-2.3,0-3.2
	c-0.5-0.5-1.2-0.7-1.9-0.7c-0.1-0.2-0.2-0.3-0.3-0.4c-0.6-0.6-1.5-0.6-2.1-0.1c-0.6,0.6-0.6,1.5,0,2.1c0.1,0.1,0.3,0.2,0.4,0.3
	c-0.1,0.5,0.1,1.1,0.4,1.6c-0.4,0.1-0.8,0.3-1.1,0.6C-72.2,252.2-72.2,253.9-71.2,255z"/>
<path d="M-52.9,245.6c0.7-0.7,0.7-1.8,0-2.6c-0.7-0.8-1.9-0.9-2.6-0.2c-0.7,0.7-0.7,1.8,0,2.6C-54.8,246.2-53.7,246.3-52.9,245.6z"
	/>
<path d="M-229.9,400.2c-0.4-0.1-0.7,0.2-0.8,0.5c-0.1,0.4,0.1,0.8,0.5,0.9c0.4,0.1,0.7-0.2,0.8-0.5
	C-229.3,400.7-229.5,400.3-229.9,400.2z"/>
<polygon points="-246.9,322.9 -246.9,322.9 -246.9,322.9 -246.9,322.9 "/>
<polygon points="-246.9,322.9 -247.1,323.1 -247,323 "/>
<path d="M-247.1,323.2c0.1-0.1,0.2-0.2,0.3-0.4C-246.9,323-247,323-247.1,323.2L-247.1,323.2z"/>
<polygon points="-246.7,322.6 -246.6,322.5 -246.6,322.6 "/>
<path d="M-245.8,324.4c0.1-0.1,0.2-0.2,0.3-0.4C-245.7,324.1-245.8,324.2-245.8,324.4L-245.8,324.4z"/>
<polygon points="-245.8,321.4 -245.7,321.4 -245.7,321.3 -245.7,321.3 -245.8,321.4 "/>
<path d="M-167.8,352.9c-2.2,0-3.7,0.9-4.9,2.6s-1.7,4.2-1.7,7.7c0,3.5,0.6,6.1,1.8,7.7c1.2,1.8,2.8,2.7,4.9,2.7
	c2.2,0,3.7-0.9,4.9-2.6c1-1.7,1.7-4.2,1.7-7.7s-0.6-6.1-1.8-7.7C-164,353.8-165.7,352.9-167.8,352.9z"/>
</svg>
