<?xml version="1.0" encoding="utf-8"?>
<!-- Generator: Adobe Illustrator 19.1.0, SVG Export Plug-In . SVG Version: 6.00 Build 0)  -->
<svg version="1.1" id="Layer_1" xmlns="http://www.w3.org/2000/svg" xmlns:xlink="http://www.w3.org/1999/xlink" x="0px" y="0px"
	 viewBox="54 -107.3 359.3 359.3" style="enable-background:new 54 -107.3 359.3 359.3;" xml:space="preserve">
<g>
	<path d="M233.7,90.9c9.2-8,18.1-15.8,27.1-23.7c25.1,28.1,50.1,56.1,75.3,84.3c-68.5,0-136.5,0-205,0
		c25.2-28.2,50.2-56.2,75.3-84.3C215.6,75.2,224.6,83,233.7,90.9z"/>
	<path d="M132.4-16.3c67.8,0,134.8,0,202.5,0C301,13.4,267.4,42.8,233.6,72.3C200,42.9,166.4,13.5,132.4-16.3z"/>
	<path d="M271.3,58c24.8-21.7,49.3-43.2,74.2-64.9c0,49.4,0,98.3,0,147.9C320.6,113.2,296.1,85.7,271.3,58z"/>
	<path d="M121.7,141.1c0-49.7,0-98.6,0-148.1c24.9,21.8,49.5,43.3,74.3,65C171.3,85.6,146.7,113.1,121.7,141.1z"/>
	<path d="M404.3,72.4h-9c0,22.3-4.5,43.6-12.7,62.9c-12.3,29-32.8,53.7-58.6,71.1S267.1,234,233.6,234c-22.3,0-43.6-4.5-62.9-12.7
		c-29-12.3-53.7-32.8-71.1-58.6S72,105.9,72,72.4c0-22.3,4.5-43.6,12.7-62.9c12.3-29.1,32.8-53.8,58.6-71.2s56.9-27.6,90.4-27.6
		c22.3,0,43.6,4.5,62.9,12.7c29,12.3,53.7,32.8,71.1,58.6s27.6,56.9,27.6,90.4L404.3,72.4h9c0-24.8-5-48.4-14.1-69.9
		c-13.6-32.3-36.4-59.7-65.1-79c-28.6-19.5-63.3-30.8-100.4-30.8c-24.8,0-48.4,5-69.9,14.1c-32.3,13.6-59.7,36.4-79,65.1
		C65.3,0.6,54,35.2,54,72.4c0,24.8,5,48.4,14.1,69.9c13.6,32.3,36.4,59.7,65.1,79c28.7,19.4,63.3,30.7,100.5,30.7
		c24.8,0,48.4-5,69.9-14.1c32.3-13.6,59.7-36.4,79-65.1c19.4-28.7,30.7-63.3,30.7-100.5L404.3,72.4L404.3,72.4z"/>
</g>
</svg>
