<?xml version="1.0" encoding="utf-8"?>
<!-- Generator: Adobe Illustrator 19.1.0, SVG Export Plug-In . SVG Version: 6.00 Build 0)  -->
<svg version="1.1" id="Layer_1" xmlns="http://www.w3.org/2000/svg" xmlns:xlink="http://www.w3.org/1999/xlink" x="0px" y="0px"
	 viewBox="-110 57.2 30.8 30.8" style="enable-background:new -110 57.2 30.8 30.8;" xml:space="preserve">
<path d="M-94.6,57.2c-8.5,0-15.4,6.9-15.4,15.4S-103.1,88-94.6,88s15.4-6.9,15.4-15.4S-86.1,57.2-94.6,57.2z M-86.9,68.7
	c0,0.2,0,0.3,0,0.5c0,5.1-4,11.1-11.2,11.1c-2.2,0-4.3-0.6-6.1-1.7c0.3,0,0.6,0.1,0.9,0.1c1.9,0,3.6-0.6,4.9-1.7
	c-1.7,0-3.2-1.2-3.7-2.7c0.2,0,0.5,0.1,0.7,0.1c0.4,0,0.7,0,1-0.1c-1.8-0.4-3.2-1.9-3.2-3.8l0,0c0.5,0.3,1.1,0.5,1.8,0.5
	c-1.1-0.7-1.8-1.9-1.8-3.2c0-0.7,0.2-1.4,0.5-2c1.9,2.4,4.9,3.9,8.1,4.1c-0.1-0.3-0.1-0.6-0.1-0.9c0-2.1,1.8-3.9,3.9-3.9
	c1.1,0,2.2,0.5,2.9,1.2c0.9-0.2,1.7-0.5,2.5-0.9c-0.3,0.9-0.9,1.7-1.7,2.2c0.8-0.1,1.6-0.3,2.3-0.6C-85.5,67.5-86.2,68.2-86.9,68.7z
	"/>
</svg>
