<?xml version="1.0" encoding="utf-8"?>
<!-- Generator: Adobe Illustrator 19.1.0, SVG Export Plug-In . SVG Version: 6.00 Build 0)  -->
<svg version="1.1" id="Layer_1" xmlns="http://www.w3.org/2000/svg" xmlns:xlink="http://www.w3.org/1999/xlink" x="0px" y="0px"
	 viewBox="-101 49 48 48" style="enable-background:new -101 49 48 48;" xml:space="preserve">
<path d="M-77.3,68.3c0.2,0,0.4-0.1,0.6-0.2c0.1-0.1,0.2-0.3,0.2-0.5v-4.7c0-0.2-0.1-0.3-0.2-0.5c-0.1-0.1-0.3-0.2-0.5-0.2
	c-0.2,0-0.4,0.1-0.5,0.2c-0.1,0.1-0.2,0.3-0.2,0.5v4.7c0,0.2,0.1,0.4,0.2,0.5C-77.7,68.3-77.5,68.3-77.3,68.3z"/>
<path d="M-69,85c0.8,0,1.3-0.2,1.7-0.6c0.4-0.4,0.6-1,0.6-1.8v-0.4h-1.6v0.4c0,0.5-0.1,0.7-0.2,0.9c-0.1,0.1-0.3,0.2-0.5,0.2
	s-0.4-0.1-0.5-0.2c-0.1-0.2-0.1-0.4-0.1-0.9v-1.5h2.9v-2c0-0.7-0.2-1.3-0.6-1.7c-0.4-0.4-0.9-0.6-1.6-0.6c-0.7,0-1.2,0.2-1.7,0.6
	c-0.4,0.4-0.6,1-0.6,1.6v3.5c0,0.7,0.2,1.3,0.6,1.8S-69.7,85-69,85z M-69.7,79.1c0-0.3,0.1-0.6,0.2-0.7s0.3-0.2,0.5-0.2
	s0.4,0.1,0.5,0.2s0.2,0.4,0.2,0.7v0.8h-1.3L-69.7,79.1L-69.7,79.1z"/>
<path d="M-77,97c13.3,0,24-10.7,24-24s-10.7-24-24-24s-24,10.7-24,24S-90.3,97-77,97z M-73.4,61h1.7v6.6c0,0.2,0,0.3,0.1,0.4
	s0.2,0.1,0.3,0.1c0.1,0,0.3-0.1,0.5-0.2c0.2-0.1,0.4-0.3,0.5-0.5V61h1.7v8.6h-1.7v-0.9c-0.3,0.3-0.6,0.6-1,0.8
	c-0.3,0.2-0.7,0.3-1,0.3c-0.4,0-0.7-0.1-0.9-0.4c-0.2-0.3-0.3-0.6-0.3-1.1L-73.4,61L-73.4,61z M-79.7,63c0-0.7,0.2-1.2,0.7-1.6
	c0.5-0.4,1.1-0.6,1.9-0.6c0.7,0,1.3,0.2,1.7,0.6c0.4,0.4,0.7,0.9,0.7,1.6v4.4c0,0.7-0.2,1.3-0.7,1.7c-0.4,0.4-1.1,0.6-1.8,0.6
	c-0.7,0-1.3-0.2-1.8-0.6c-0.4-0.4-0.7-1-0.7-1.7C-79.7,67.4-79.7,63-79.7,63z M-84.4,58l1.2,4.6h0.2l1.2-4.6h2l-2.2,6.8v4.8h-2V65
	l-2.3-7H-84.4z M-92,77.9c0-3.1,2.5-5.9,5.5-5.9h19c3,0,5.5,2.8,5.5,5.9v4.5c0,3.1-2.5,5.6-5.5,5.6h-19c-3,0-5.5-2.5-5.5-5.6V77.9z"
	/>
<path d="M-74.8,84.2c0.2,0.2,0.4,0.4,0.6,0.5c0.2,0.1,0.5,0.2,0.8,0.2c0.4,0,0.8-0.1,1-0.4c0.2-0.3,0.4-0.7,0.4-1.3v-4.3
	c0-0.6-0.1-1.1-0.4-1.5c-0.3-0.3-0.6-0.5-1.1-0.5c-0.2,0-0.5,0.1-0.7,0.2c-0.2,0.1-0.4,0.3-0.7,0.5v-3.4h-1.5v10.5h1.5L-74.8,84.2
	L-74.8,84.2z M-74.8,78.5c0.1-0.1,0.2-0.2,0.3-0.2c0.1-0.1,0.2-0.1,0.3-0.1c0.2,0,0.4,0.1,0.5,0.2c0.1,0.1,0.2,0.3,0.2,0.6v4
	c0,0.2,0,0.4-0.1,0.5s-0.2,0.2-0.4,0.2c-0.1,0-0.2,0-0.4-0.1c-0.1-0.1-0.2-0.2-0.4-0.3V78.5z"/>
<path d="M-80.8,84.9c0.3,0,0.6-0.1,0.9-0.2c0.3-0.2,0.6-0.4,0.9-0.7v0.9h1.5V77H-79v5.9c-0.1,0.2-0.3,0.3-0.5,0.4
	c-0.2,0.1-0.3,0.2-0.4,0.2s-0.2,0-0.3-0.1c-0.1-0.1-0.1-0.2-0.1-0.4v-6h-1.5v6.5c0,0.5,0.1,0.8,0.3,1
	C-81.4,84.8-81.1,84.9-80.8,84.9z"/>
<polygon points="-86,84.8 -84.3,84.8 -84.3,75.8 -82.5,75.8 -82.5,74.3 -87.8,74.3 -87.8,75.8 -86,75.8 "/>
</svg>
